<?xml version="1.0" standalone="no"?>
<!DOCTYPE svg PUBLIC "-//W3C//DTD SVG 20010904//EN"
 "http://www.w3.org/TR/2001/REC-SVG-20010904/DTD/svg10.dtd">
<svg version="1.0" xmlns="http://www.w3.org/2000/svg"
 width="300.000000pt" height="300.000000pt" viewBox="0 0 300.000000 300.000000"
 preserveAspectRatio="xMidYMid meet"  id="avatarSvg">
<metadata>
Created by potrace 1.10, written by Peter Selinger 2001-2011
</metadata>
<g transform="translate(0.000000,300.000000) scale(0.100000,-0.100000)" 
stroke="none" fill="#5c1125">
<path d="M1259 2886 c-3 -3 -26 -6 -52 -7 -26 -1 -47 -6 -47 -10 0 -4 -9 -6
-20 -4 -37 7 -160 -44 -160 -66 0 -5 -13 -28 -30 -50 -24 -33 -29 -50 -27 -88
1 -29 7 -46 15 -46 6 0 12 5 11 10 -1 6 -5 9 -10 8 -12 -4 -11 14 1 22 7 4 7
12 0 25 -14 26 -13 33 5 27 14 -6 28 7 31 28 0 6 2 17 3 25 1 13 2 13 11 0 8
-12 10 -12 10 5 1 19 1 19 14 2 8 -10 24 -20 36 -22 18 -3 20 -2 10 10 -15 18
1 20 17 4 9 -9 12 -7 10 10 -1 16 -6 20 -20 15 -16 -5 -17 -3 -8 14 6 12 7 23
1 30 -7 8 -7 9 1 3 7 -6 18 -2 30 10 10 10 25 19 32 19 6 0 0 -10 -15 -21 -33
-24 -35 -34 -9 -36 14 -1 18 3 14 14 -5 12 -2 15 10 10 9 -3 17 -3 17 1 0 10
51 28 101 37 33 6 37 4 49 -24 12 -29 40 -44 40 -21 0 6 -7 10 -15 10 -23 0
-18 21 8 28 20 6 20 7 -8 13 l-30 7 29 1 c18 1 36 -7 47 -20 10 -12 25 -19 33
-16 8 3 17 1 20 -6 3 -8 5 -8 5 -1 1 14 51 6 51 -8 0 -5 9 -6 20 -3 11 4 20 2
20 -4 0 -6 -7 -11 -15 -11 -8 0 -15 -4 -15 -9 0 -6 13 -5 32 1 24 9 33 8 36 0
2 -7 10 -12 19 -12 12 0 36 -11 82 -37 2 -2 -2 -11 -10 -20 -12 -16 -12 -17 2
-6 12 10 18 10 27 1 9 -9 12 -9 12 -1 0 6 -6 14 -12 16 -9 4 -10 6 -1 6 6 1
18 -5 25 -11 7 -7 18 -13 23 -13 20 0 115 -37 121 -47 4 -6 -1 -8 -13 -4 -11
4 -31 2 -44 -4 -24 -10 -24 -10 3 -5 15 3 30 0 34 -7 5 -7 2 -9 -8 -6 -8 4
-21 2 -29 -3 -10 -6 -8 -9 11 -10 14 0 33 -2 42 -4 10 -2 20 1 23 5 10 15 34
-1 28 -18 -4 -15 -3 -15 7 -2 9 13 11 12 9 -5 -3 -37 1 -45 26 -57 13 -6 22
-15 19 -19 -3 -5 3 -9 13 -10 16 0 16 -1 -2 -9 -19 -8 -19 -9 3 -9 17 -1 24
-9 28 -31 4 -16 10 -28 14 -25 10 6 31 -70 24 -89 -3 -9 -1 -16 5 -16 7 0 9
-9 5 -25 -3 -14 -1 -32 6 -40 6 -7 10 -24 9 -37 -1 -13 1 -45 5 -73 12 -81 12
-90 -1 -88 -7 2 -13 -2 -13 -7 0 -6 -5 -10 -11 -10 -6 0 -8 9 -4 21 5 15 4 19
-4 14 -8 -5 -10 1 -6 18 4 15 1 30 -9 39 -8 9 -12 18 -9 22 13 13 -19 82 -38
83 -10 1 -19 -2 -19 -8 0 -5 7 -9 15 -9 17 0 21 -16 5 -22 -15 -5 -20 -42 -10
-75 l8 -28 2 35 c1 19 2 40 1 47 -1 6 3 14 9 18 8 5 12 -4 12 -35 1 -3 -2 -18
-5 -35 -4 -16 -4 -24 -1 -17 3 6 13 12 22 12 13 0 14 -2 3 -9 -10 -6 -11 -13
-2 -29 15 -29 14 -52 -4 -72 -14 -15 -14 -18 -1 -23 11 -4 13 -1 9 10 -4 10
-2 14 4 10 6 -4 14 0 17 8 8 21 48 35 63 23 10 -8 9 -14 -5 -27 -10 -9 -12
-12 -5 -7 9 6 20 3 33 -9 22 -20 27 -55 8 -55 -9 0 -10 -3 -2 -8 14 -9 25 -52
13 -52 -5 0 -9 -4 -9 -10 0 -5 6 -7 13 -4 30 11 -9 174 -44 186 -10 3 -18 48
-21 118 0 8 -5 35 -10 60 -5 25 -11 63 -13 85 -6 84 -49 179 -105 228 -16 15
-30 34 -30 43 0 20 -44 59 -102 89 -26 14 -49 29 -52 34 -4 5 -20 13 -37 16
-52 12 -172 64 -194 85 -15 14 -24 17 -32 9 -8 -8 -13 -7 -18 2 -5 8 -4 10 3
5 7 -4 12 -3 12 2 0 15 -218 42 -231 28z m136 -26 c3 -5 1 -10 -4 -10 -6 0
-11 5 -11 10 0 6 2 10 4 10 3 0 8 -4 11 -10z m42 4 c-3 -3 -12 -4 -19 -1 -8 3
-5 6 6 6 11 1 17 -2 13 -5z m-387 -44 c0 -5 -6 -10 -14 -10 -8 0 -17 -4 -20
-9 -4 -5 2 -7 12 -4 14 3 18 -2 18 -21 0 -25 0 -25 -18 -6 -11 11 -24 20 -31
20 -7 1 -1 10 12 20 25 22 41 26 41 10z m-85 -90 c3 -5 1 -10 -4 -10 -6 0 -11
5 -11 10 0 6 2 10 4 10 3 0 8 -4 11 -10z m891 -77 c-10 -11 -37 -12 -30 -2 3
5 12 9 21 9 9 0 13 -3 9 -7z"/>
<path d="M1257 2833 c-4 -3 -7 -11 -7 -17 0 -6 5 -5 12 2 6 6 9 14 7 17 -3 3
-9 2 -12 -2z"/>
<path d="M1216 2814 c-18 -18 -20 -24 -6 -24 5 0 14 9 20 20 13 24 7 26 -14 4z"/>
<path d="M1153 2806 c-9 -11 -8 -15 6 -19 14 -3 17 0 14 14 -6 22 -5 22 -20 5z"/>
<path d="M1450 2810 c0 -5 5 -10 11 -10 5 0 7 5 4 10 -3 6 -8 10 -11 10 -2 0
-4 -4 -4 -10z"/>
<path d="M1353 2774 c-17 -7 -35 -18 -38 -24 -4 -7 11 -2 34 9 23 12 41 24 41
26 0 6 3 7 -37 -11z"/>
<path d="M1115 2770 c3 -5 12 -7 20 -3 21 7 19 13 -6 13 -11 0 -18 -4 -14 -10z"/>
<path d="M1387 2758 c-3 -10 0 -19 8 -22 8 -3 13 -11 11 -18 -1 -7 -1 -10 1
-6 2 4 11 4 19 1 9 -3 14 1 14 13 0 14 -3 16 -9 6 -6 -11 -10 -11 -18 0 -6 7
-12 20 -15 27 -4 12 -5 12 -11 -1z"/>
<path d="M1450 2756 c0 -3 13 -14 29 -25 24 -17 30 -18 34 -6 4 10 1 12 -11 8
-15 -6 -16 -5 -2 13 14 17 14 18 -2 6 -11 -9 -18 -10 -23 -2 -6 10 -25 14 -25
6z"/>
<path d="M1130 2740 c0 -5 7 -10 16 -10 8 0 12 5 9 10 -3 6 -10 10 -16 10 -5
0 -9 -4 -9 -10z"/>
<path d="M1263 2737 c15 -6 27 -14 27 -18 0 -4 10 -5 23 -1 19 5 20 3 9 -10
-11 -14 -10 -16 9 -11 13 4 20 2 16 -4 -3 -5 1 -10 9 -10 11 0 9 6 -8 24 -12
13 -29 23 -38 23 -9 0 -20 3 -24 7 -3 4 -17 8 -29 9 -18 2 -17 0 6 -9z"/>
<path d="M1012 2724 c2 -14 -2 -18 -16 -16 -10 2 -15 -1 -12 -6 3 -5 19 -12
36 -14 22 -3 27 -2 19 8 -5 6 -8 17 -7 24 2 7 -3 15 -10 17 -9 3 -12 -2 -10
-13z"/>
<path d="M1076 2733 c-4 -5 -13 -8 -18 -8 -6 0 -13 -6 -15 -12 -3 -7 2 -13 11
-13 9 0 16 -5 16 -11 0 -5 5 -7 11 -3 8 4 7 9 -2 14 -10 7 -10 11 0 24 14 16
11 22 -3 9z"/>
<path d="M1560 2720 c0 -7 24 -20 36 -20 13 0 1 19 -16 23 -11 3 -20 2 -20 -3z"/>
<path d="M1185 2710 c-3 -5 -1 -10 4 -10 6 0 11 5 11 10 0 6 -2 10 -4 10 -3 0
-8 -4 -11 -10z"/>
<path d="M1230 2711 c0 -20 -33 -42 -54 -36 -20 6 -21 6 -2 -9 18 -14 21 -14
39 1 25 24 41 53 27 53 -5 0 -10 -4 -10 -9z"/>
<path d="M1647 2707 c-4 -10 -2 -17 5 -17 6 0 8 -3 5 -7 -4 -3 -2 -12 5 -20
10 -12 7 -13 -18 -8 -28 5 -28 5 -4 -5 14 -6 34 -21 45 -35 15 -18 24 -22 35
-15 13 8 13 10 -1 10 -9 0 -21 11 -27 25 -11 24 -11 25 9 13 12 -7 30 -18 41
-24 15 -9 16 -13 6 -17 -8 -4 -9 -6 -1 -6 18 -1 22 11 11 39 -7 20 -11 22 -18
10 -7 -11 -10 -12 -10 -2 0 7 -4 10 -10 7 -5 -3 -10 -1 -10 4 0 6 -12 11 -26
11 -14 0 -23 3 -21 8 3 4 1 16 -3 26 -6 17 -7 18 -13 3z"/>
<path d="M1535 2693 c1 -10 8 -17 14 -15 6 1 11 -5 11 -13 0 -8 4 -15 9 -15 6
0 9 9 8 19 0 11 -4 18 -8 15 -4 -2 -9 3 -13 11 -8 21 -25 19 -21 -2z"/>
<path d="M1615 2700 c3 -5 8 -10 11 -10 2 0 4 5 4 10 0 6 -5 10 -11 10 -5 0
-7 -4 -4 -10z"/>
<path d="M1677 2700 c6 -7 31 -14 55 -16 47 -3 30 8 -32 21 -28 6 -33 4 -23
-5z"/>
<path d="M950 2680 c0 -5 5 -10 11 -10 5 0 7 -5 4 -10 -4 -6 -2 -17 4 -24 8
-10 7 -17 -4 -26 -19 -16 -19 -30 -1 -30 29 0 29 -40 -1 -76 -66 -82 -84 -113
-102 -174 -27 -91 -45 -250 -35 -308 4 -26 8 -137 9 -247 2 -295 18 -349 155
-523 30 -39 59 -70 64 -69 4 1 10 -14 12 -34 4 -31 0 -41 -27 -63 -17 -14 -37
-26 -45 -26 -7 0 -58 -23 -113 -50 -55 -28 -104 -50 -110 -50 -6 0 -19 -5 -29
-10 -9 -6 -73 -31 -142 -56 -170 -62 -245 -91 -311 -120 -31 -13 -63 -24 -70
-24 -28 0 -78 -40 -123 -98 -25 -33 -46 -65 -46 -70 0 -6 -12 -25 -26 -42 -15
-17 -24 -33 -21 -37 3 -3 21 19 40 48 53 84 116 159 140 169 93 38 358 140
366 140 15 0 219 84 335 139 60 28 117 51 126 51 10 0 32 16 49 35 24 27 29
40 22 57 -4 12 -5 36 -1 54 5 19 2 42 -6 60 l-14 29 4 -30 c5 -35 -4 -57 -20
-47 -5 4 -27 28 -48 54 -31 39 -36 50 -27 66 8 15 7 23 -4 32 -8 7 -13 16 -10
20 3 5 1 11 -5 15 -19 12 -23 -25 -5 -45 10 -11 16 -23 12 -26 -3 -3 -18 13
-32 36 -19 30 -24 45 -16 53 8 8 11 7 11 -2 0 -10 4 -10 13 -3 6 6 16 10 22
10 5 0 10 5 12 12 1 7 0 7 -4 0 -8 -17 -33 9 -26 28 3 9 -5 1 -17 -18 l-23
-35 -12 35 c-35 102 -53 461 -24 496 9 11 8 14 -1 14 -10 0 -10 3 0 15 18 21
33 19 25 -4 -7 -22 40 -75 57 -65 6 4 0 13 -16 21 -27 14 -35 48 -13 56 7 3 5
6 -5 6 -11 1 -16 8 -13 20 5 26 -22 16 -31 -11 -10 -34 -22 -6 -26 59 -3 56
-2 62 13 58 10 -3 21 0 25 6 4 8 3 9 -4 5 -7 -4 -12 -2 -12 4 0 6 -4 8 -10 5
-13 -8 -13 2 4 110 8 50 23 111 35 136 26 58 109 152 127 145 8 -3 13 0 11 7
-1 7 6 11 16 11 9 -1 17 4 17 12 0 20 16 25 86 29 36 2 71 8 76 13 6 6 17 8
24 5 8 -3 14 0 14 6 0 6 -9 11 -20 11 -11 0 -20 -4 -20 -9 0 -5 -18 -11 -40
-13 -30 -3 -39 0 -36 9 3 7 3 13 0 13 -9 0 -88 -42 -116 -62 -28 -19 -28 -19
-28 0 0 11 -7 25 -15 32 -19 16 -20 31 -1 24 7 -3 16 3 20 13 6 15 8 15 16 3
8 -13 10 -12 10 3 0 9 4 17 10 17 14 0 1 28 -17 34 -9 4 -22 1 -29 -5 -11 -9
-14 -8 -14 5 0 9 -7 16 -15 16 -8 0 -15 -4 -15 -10z m78 -30 c3 -7 0 -10 -6
-6 -6 3 -12 0 -15 -6 -2 -7 -7 -10 -11 -7 -10 9 5 40 17 36 6 -2 13 -9 15 -17z"/>
<path d="M1280 2675 c-11 -13 -10 -14 4 -9 9 3 16 10 16 15 0 13 -6 11 -20 -6z"/>
<path d="M1310 2656 c0 -8 5 -18 10 -21 6 -3 10 1 10 9 0 8 -4 18 -10 21 -5 3
-10 -1 -10 -9z"/>
<path d="M1340 2655 c0 -8 4 -15 10 -15 5 0 7 7 4 15 -4 8 -8 15 -10 15 -2 0
-4 -7 -4 -15z"/>
<path d="M1425 2660 c-3 -5 -1 -10 4 -10 6 0 11 5 11 10 0 6 -2 10 -4 10 -3 0
-8 -4 -11 -10z"/>
<path d="M1065 2650 c-3 -5 -1 -10 4 -10 6 0 11 5 11 10 0 6 -2 10 -4 10 -3 0
-8 -4 -11 -10z"/>
<path d="M1103 2624 l-28 -25 33 22 c17 13 32 24 32 26 0 8 -11 1 -37 -23z"/>
<path d="M1150 2646 c0 -2 7 -7 16 -10 8 -3 12 -2 9 4 -6 10 -25 14 -25 6z"/>
<path d="M1376 2635 c4 -9 0 -15 -10 -15 -9 0 -16 -8 -16 -17 0 -11 3 -14 8
-7 8 12 70 13 88 1 9 -5 24 11 24 27 0 2 -14 3 -31 3 -17 0 -34 4 -37 9 -12
16 -32 15 -26 -1z"/>
<path d="M1053 2615 c0 -8 4 -12 9 -9 4 3 8 9 8 15 0 5 -4 9 -8 9 -5 0 -9 -7
-9 -15z"/>
<path d="M1546 2618 c3 -5 0 -9 -7 -7 -8 1 -25 1 -39 0 -24 -2 -24 -2 -6 -13
14 -8 21 -8 23 -1 3 7 17 8 38 3 41 -9 46 0 10 17 -14 6 -22 7 -19 1z"/>
<path d="M1278 2608 c5 -5 16 -8 23 -6 8 3 3 7 -10 11 -17 4 -21 3 -13 -5z"/>
<path d="M1841 2599 c9 -17 13 -19 20 -8 14 22 11 29 -11 29 -18 0 -19 -3 -9
-21z"/>
<path d="M1596 2585 c-4 -12 -2 -13 13 -3 15 9 25 5 60 -22 22 -18 41 -38 41
-44 0 -6 5 -4 10 4 6 10 4 19 -8 30 -54 49 -104 65 -116 35z"/>
<path d="M1802 2570 c0 -14 2 -19 5 -12 2 6 2 18 0 25 -3 6 -5 1 -5 -13z"/>
<path d="M1780 2553 c0 -13 35 -45 46 -41 15 4 54 -13 54 -23 0 -5 8 -9 18 -9
25 1 -35 44 -67 48 -15 1 -32 10 -38 19 -7 9 -13 12 -13 6z"/>
<path d="M1855 2550 c3 -5 8 -10 11 -10 2 0 4 5 4 10 0 6 -5 10 -11 10 -5 0
-7 -4 -4 -10z"/>
<path d="M1896 2535 c4 -8 8 -15 10 -15 2 0 4 7 4 15 0 8 -4 15 -10 15 -5 0
-7 -7 -4 -15z"/>
<path d="M1745 2519 c5 -15 4 -19 -4 -15 -6 4 -11 5 -11 2 0 -6 38 -46 43 -46
8 0 0 40 -11 53 -7 7 -9 17 -5 20 3 4 1 7 -6 7 -8 0 -10 -7 -6 -21z"/>
<path d="M1830 2486 c0 -9 5 -16 10 -16 6 0 10 4 10 9 0 6 -4 13 -10 16 -5 3
-10 -1 -10 -9z"/>
<path d="M1922 2478 c2 -6 10 -14 16 -16 7 -2 10 2 6 12 -7 18 -28 22 -22 4z"/>
<path d="M1952 2460 c0 -16 3 -30 7 -30 4 0 7 14 7 30 0 17 -3 30 -6 30 -4 0
-7 -13 -8 -30z"/>
<path d="M1785 2451 c-11 -18 -14 -51 -6 -51 5 0 12 12 15 26 7 28 2 42 -9 25z"/>
<path d="M1834 2438 c4 -13 9 -41 12 -63 3 -22 8 -47 11 -55 4 -8 5 -19 4 -24
-1 -5 4 -16 12 -25 17 -20 39 -80 32 -91 -3 -4 3 -14 12 -21 15 -13 16 -11 9
21 -5 19 -8 43 -8 52 0 9 -6 19 -14 22 -8 3 -14 12 -14 21 0 8 -6 15 -12 15
-9 0 -8 3 2 10 12 8 12 10 -2 15 -9 4 -15 15 -13 25 4 19 -23 120 -32 120 -3
0 -2 -10 1 -22z"/>
<path d="M1850 2447 c0 -4 8 -7 18 -5 11 2 18 -4 20 -19 2 -13 7 -23 12 -23
14 0 23 -61 11 -73 -6 -6 -11 -15 -11 -20 0 -5 7 -2 15 7 16 16 21 71 6 80 -4
3 -11 19 -14 36 -5 24 -11 29 -32 28 -14 -1 -25 -6 -25 -11z"/>
<path d="M1918 2442 c5 -9 12 -24 15 -32 3 -9 6 -4 6 11 1 15 -6 29 -14 33
-12 4 -13 2 -7 -12z"/>
<path d="M1811 2434 c0 -11 3 -14 6 -6 3 7 2 16 -1 19 -3 4 -6 -2 -5 -13z"/>
<path d="M1995 2416 c14 -22 14 -25 0 -40 -14 -13 -14 -16 -2 -16 30 0 30 63
1 74 -11 4 -11 1 1 -18z"/>
<path d="M1950 2411 c0 -5 5 -13 10 -16 6 -3 10 -2 10 4 0 5 -4 13 -10 16 -5
3 -10 2 -10 -4z"/>
<path d="M1981 2394 c0 -11 3 -14 6 -6 3 7 2 16 -1 19 -3 4 -6 -2 -5 -13z"/>
<path d="M1762 2369 c-8 -12 -10 -25 -5 -32 5 -7 10 -28 11 -47 2 -29 1 -33
-10 -20 -14 16 -52 24 -42 9 3 -5 12 -9 20 -9 8 0 12 -4 9 -10 -7 -12 19 -53
28 -43 4 3 7 -3 7 -15 0 -12 9 -26 19 -32 27 -14 31 -13 24 6 -3 8 -12 13 -20
10 -10 -4 -13 0 -11 13 2 10 -2 25 -9 33 -9 11 -10 24 -2 53 7 23 7 40 1 44
-14 9 -10 41 5 41 7 0 13 5 13 10 0 18 -25 11 -38 -11z"/>
<path d="M1812 2367 c-1 -10 -6 -15 -12 -12 -6 4 -7 -2 -2 -17 5 -13 7 -42 5
-65 -2 -28 0 -43 8 -43 6 0 9 6 6 14 -3 7 -2 17 1 22 4 5 5 34 1 64 -3 30 -6
47 -7 37z"/>
<path d="M1886 2367 c3 -10 9 -15 12 -12 3 3 0 11 -7 18 -10 9 -11 8 -5 -6z"/>
<path d="M1226 2361 c-3 -5 2 -15 12 -22 15 -12 16 -12 5 2 -7 9 -10 19 -6 22
3 4 4 7 0 7 -3 0 -8 -4 -11 -9z"/>
<path d="M1960 2340 c0 -6 5 -8 10 -5 6 3 10 -2 10 -12 0 -11 7 -28 16 -39 14
-18 15 -18 4 4 -6 12 -10 30 -8 39 2 10 -4 19 -14 21 -10 2 -18 -2 -18 -8z"/>
<path d="M1027 2309 c7 -7 15 -10 18 -7 3 3 -2 9 -12 12 -14 6 -15 5 -6 -5z"/>
<path d="M1950 2305 c0 -8 4 -15 10 -15 5 0 7 7 4 15 -4 8 -8 15 -10 15 -2 0
-4 -7 -4 -15z"/>
<path d="M1862 2225 c0 -16 2 -22 5 -12 2 9 2 23 0 30 -3 6 -5 -1 -5 -18z"/>
<path d="M1830 2216 c0 -8 4 -17 9 -20 5 -4 7 3 4 14 -6 23 -13 26 -13 6z"/>
<path d="M975 2190 c-3 -6 1 -7 9 -4 18 7 21 14 7 14 -6 0 -13 -4 -16 -10z"/>
<path d="M1045 2190 c-3 -5 -1 -10 4 -10 6 0 11 5 11 10 0 6 -2 10 -4 10 -3 0
-8 -4 -11 -10z"/>
<path d="M1390 2180 c-12 -8 -10 -10 8 -10 13 0 20 4 17 10 -7 12 -6 12 -25 0z"/>
<path d="M1200 2166 c0 -8 -6 -17 -12 -19 -8 -4 -9 -6 -2 -6 18 -1 37 26 24
34 -5 3 -10 0 -10 -9z"/>
<path d="M1293 2166 c0 -8 8 -17 17 -19 13 -3 16 0 13 14 -6 22 -30 26 -30 5z"/>
<path d="M1330 2172 c0 -6 5 -14 10 -17 15 -9 12 -25 -4 -25 -8 0 -18 -5 -22
-12 -5 -8 -2 -9 12 -4 18 8 67 15 124 19 15 1 26 9 28 21 3 13 0 16 -9 10 -22
-13 -63 -12 -86 3 -16 9 -23 10 -23 2 0 -8 -4 -8 -15 1 -9 8 -15 9 -15 2z"/>
<path d="M1844 2165 c3 -8 0 -15 -7 -15 -7 0 -4 -5 5 -11 10 -5 15 -16 12 -24
-7 -18 -27 -20 -22 -3 3 7 -1 18 -8 25 -20 21 -24 15 -8 -14 7 -16 14 -40 14
-55 0 -15 5 -30 10 -33 7 -4 8 3 4 20 -4 17 -1 32 9 43 16 18 12 82 -5 82 -6
0 -8 -7 -4 -15z"/>
<path d="M1870 2165 c0 -8 2 -15 4 -15 2 0 6 7 10 15 3 8 1 15 -4 15 -6 0 -10
-7 -10 -15z"/>
<path d="M2039 2178 c-6 -24 -5 -58 2 -58 5 0 9 14 9 30 0 17 -2 30 -5 30 -3
0 -5 -1 -6 -2z"/>
<path d="M1240 2156 c0 -8 7 -16 14 -19 11 -4 13 -1 9 10 -4 11 -2 14 5 9 7
-4 12 -2 12 3 0 6 -9 11 -20 11 -11 0 -20 -6 -20 -14z"/>
<path d="M1886 2144 c-9 -23 -2 -28 13 -10 7 8 8 17 3 20 -6 3 -13 -1 -16 -10z"/>
<path d="M1217 2143 c-4 -3 -7 -13 -7 -22 1 -13 3 -13 11 2 11 19 8 33 -4 20z"/>
<path d="M1530 2140 c20 -13 33 -13 25 0 -3 6 -14 10 -23 10 -15 0 -15 -2 -2
-10z"/>
<path d="M1288 2133 c7 -3 16 -2 19 1 4 3 -2 6 -13 5 -11 0 -14 -3 -6 -6z"/>
<path d="M1776 2127 c3 -10 9 -15 12 -12 3 3 0 11 -7 18 -10 9 -11 8 -5 -6z"/>
<path d="M1907 2118 c-10 -11 -16 -22 -13 -26 6 -6 35 27 36 41 0 10 -2 8 -23
-15z"/>
<path d="M891 2118 c-1 -10 -5 -18 -11 -18 -14 0 -13 -27 2 -36 6 -4 8 -3 4 4
-9 15 21 42 39 36 8 -4 15 -1 15 6 0 7 -8 10 -20 7 -10 -3 -21 0 -24 7 -2 6
-5 3 -5 -6z"/>
<path d="M1185 2120 c-3 -5 -1 -10 4 -10 6 0 11 5 11 10 0 6 -2 10 -4 10 -3 0
-8 -4 -11 -10z"/>
<path d="M1488 2123 c7 -3 16 -2 19 1 4 3 -2 6 -13 5 -11 0 -14 -3 -6 -6z"/>
<path d="M947 2098 c-3 -11 -9 -18 -14 -15 -4 3 -14 -2 -22 -11 -13 -13 -12
-14 12 -9 14 4 29 3 32 -3 3 -5 11 -10 18 -10 6 0 4 7 -5 17 -16 15 -16 17 -1
28 14 11 14 12 0 18 -10 4 -17 -1 -20 -15z"/>
<path d="M1250 2110 c-9 -6 -10 -10 -3 -10 6 0 15 5 18 10 8 12 4 12 -15 0z"/>
<path d="M1515 2110 c-8 -13 5 -13 25 0 13 8 13 10 -2 10 -9 0 -20 -4 -23 -10z"/>
<path d="M1946 2109 c3 -5 -6 -14 -20 -20 -30 -14 -41 -38 -25 -53 9 -8 10 -8
5 1 -8 15 30 37 47 27 9 -6 9 -4 0 8 -7 8 -10 18 -6 21 13 14 23 6 23 -18 0
-18 -5 -25 -20 -25 -11 0 -20 -5 -20 -11 0 -5 4 -8 9 -4 5 3 12 1 16 -5 3 -5
-1 -10 -9 -10 -9 0 -16 -8 -15 -17 0 -11 3 -13 6 -5 2 6 9 12 14 12 6 0 5 -8
-1 -20 -8 -14 -8 -20 0 -20 6 0 8 -4 5 -10 -10 -17 -35 -11 -35 8 0 9 -5 24
-11 32 -8 12 -9 7 -6 -17 2 -23 -1 -33 -10 -33 -8 0 -11 5 -8 13 4 6 -1 3 -9
-7 -11 -14 -13 -23 -5 -32 6 -7 8 -17 6 -21 -3 -5 -8 -38 -12 -73 -8 -83 -22
-137 -37 -142 -9 -3 -9 -6 -1 -11 14 -9 46 50 36 66 -3 5 -1 7 5 4 13 -9 42 2
42 15 0 6 -7 8 -15 4 -8 -3 -16 0 -16 7 -3 25 3 52 13 62 7 7 8 0 3 -22 -4
-21 -3 -33 4 -33 6 0 11 12 11 27 0 16 19 65 42 111 29 57 39 85 31 90 -7 4
-11 28 -10 56 2 40 -1 49 -16 51 -9 2 -15 -1 -11 -6z m-29 -194 c-1 -19 -5
-35 -9 -35 -4 0 -8 -7 -8 -15 0 -8 -4 -15 -8 -15 -21 0 3 98 25 100 0 0 1 -16
0 -35z m19 -1 c-4 -9 -9 -15 -11 -12 -3 3 -3 13 1 22 4 9 9 15 11 12 3 -3 3
-13 -1 -22z"/>
<path d="M993 2096 c3 -8 1 -17 -6 -20 -9 -3 -8 -5 1 -5 7 -1 10 -6 6 -13 -5
-7 -3 -8 5 -4 7 5 10 10 7 14 -3 3 2 11 12 19 16 12 16 13 -2 6 -13 -4 -17 -3
-12 5 4 7 2 12 -4 12 -7 0 -10 -6 -7 -14z"/>
<path d="M1560 2099 c0 -6 9 -8 20 -4 14 5 20 2 20 -9 0 -9 5 -16 10 -16 12 0
9 22 -5 32 -15 11 -45 9 -45 -3z"/>
<path d="M1170 2093 c0 -6 9 -21 21 -34 l20 -24 -17 30 c-24 39 -24 40 -24 28z"/>
<path d="M1796 2087 c3 -10 9 -15 12 -12 3 3 0 11 -7 18 -10 9 -11 8 -5 -6z"/>
<path d="M1210 2080 c-13 -8 -12 -10 3 -10 9 0 17 5 17 10 0 12 -1 12 -20 0z"/>
<path d="M1857 2084 c-8 -8 3 -34 14 -34 5 0 9 9 9 20 0 19 -11 26 -23 14z"/>
<path d="M1640 2060 c6 -11 16 -20 23 -20 7 0 6 4 -3 10 -13 9 -13 10 0 10 13
0 13 1 0 10 -24 15 -32 12 -20 -10z"/>
<path d="M1060 2060 c-9 -6 -10 -10 -3 -10 6 0 15 5 18 10 8 12 4 12 -15 0z"/>
<path d="M1334 2054 c-18 -14 -18 -15 4 -4 13 6 31 9 40 7 13 -3 11 -6 -10
-15 -14 -6 -29 -17 -33 -24 -6 -10 -5 -11 6 0 22 20 34 14 14 -8 -10 -11 -15
-23 -12 -27 4 -3 7 -1 7 6 0 7 8 3 19 -10 10 -13 17 -28 15 -34 -3 -6 11 -10
33 -9 61 2 68 3 89 18 17 13 14 13 -21 1 -43 -14 -56 -12 -37 7 7 7 12 22 12
34 0 17 6 21 29 20 29 -1 36 -14 16 -28 -14 -11 17 -10 33 1 11 6 7 13 -13 29
-29 23 -87 38 -104 27 -6 -3 -11 -1 -11 4 0 21 84 11 128 -14 24 -14 42 -20
40 -13 -2 6 -20 19 -38 30 -45 24 -177 26 -206 2z m71 -24 c-3 -5 -1 -10 4
-10 6 0 11 5 11 10 0 6 8 10 19 10 15 0 17 -5 12 -32 -8 -39 -34 -57 -58 -42
-15 10 -20 31 -14 67 0 4 8 7 17 7 8 0 12 -4 9 -10z"/>
<path d="M1098 2043 c7 -3 16 -2 19 1 4 3 -2 6 -13 5 -11 0 -14 -3 -6 -6z"/>
<path d="M1070 2003 c10 -59 2 -69 -52 -69 -25 1 -44 -2 -41 -6 2 -5 -1 -8 -6
-8 -6 0 -11 -5 -11 -11 0 -5 5 -7 11 -3 7 4 29 8 51 10 37 3 39 2 32 -19 -7
-24 -24 -38 -36 -31 -4 3 -5 11 -1 19 3 8 0 15 -7 15 -6 0 -8 -4 -5 -10 3 -5
-1 -10 -9 -10 -9 0 -16 -5 -16 -11 0 -5 5 -7 12 -3 6 4 17 -1 25 -11 7 -11 13
-13 13 -6 0 7 4 10 9 7 14 -9 46 83 45 127 -1 21 -6 43 -12 49 -6 6 -7 -3 -2
-29z"/>
<path d="M1866 2025 c4 -8 10 -12 15 -9 11 6 2 24 -11 24 -5 0 -7 -7 -4 -15z"/>
<path d="M919 2003 c-8 -9 -9 -14 -3 -10 7 4 15 0 18 -9 4 -9 9 -14 13 -11 3
4 0 14 -7 23 -12 14 -10 15 26 10 30 -4 33 -4 14 3 -38 13 -46 13 -61 -6z"/>
<path d="M1202 2000 c0 -14 2 -19 5 -12 2 6 2 18 0 25 -3 6 -5 1 -5 -13z"/>
<path d="M1851 2010 c0 -8 4 -22 9 -30 7 -11 10 -11 10 -2 0 7 5 10 10 7 6 -3
10 -1 10 4 0 6 -6 11 -14 11 -8 0 -17 6 -19 13 -4 8 -6 7 -6 -3z"/>
<path d="M1560 1990 c0 -5 5 -10 11 -10 5 0 7 5 4 10 -3 6 -8 10 -11 10 -2 0
-4 -4 -4 -10z"/>
<path d="M970 1966 c0 -8 10 -13 25 -13 20 0 23 2 14 13 -6 8 -18 14 -25 14
-8 0 -14 -6 -14 -14z"/>
<path d="M1265 1963 c-14 -11 -15 -14 -4 -10 9 3 21 1 27 -5 6 -6 12 -6 16 1
4 6 0 11 -9 11 -9 0 -13 5 -10 10 9 14 3 12 -20 -7z"/>
<path d="M1210 1941 c16 -31 32 -36 18 -7 -6 14 -15 26 -20 26 -5 0 -4 -9 2
-19z"/>
<path d="M1320 1944 c0 -8 5 -12 10 -9 6 4 8 11 5 16 -9 14 -15 11 -15 -7z"/>
<path d="M940 1940 c0 -5 5 -10 11 -10 5 0 7 5 4 10 -3 6 -8 10 -11 10 -2 0
-4 -4 -4 -10z"/>
<path d="M2104 1942 c-6 -4 -13 -39 -16 -79 -4 -60 -10 -78 -37 -114 -17 -24
-31 -48 -31 -53 0 -6 9 3 20 19 11 17 24 30 29 30 5 0 13 4 18 9 5 5 3 6 -4 2
-16 -9 -17 6 -1 22 14 14 20 36 19 77 0 24 2 26 8 11 7 -17 8 -18 14 -3 3 9 1
19 -4 23 -6 3 -8 19 -5 35 6 32 6 32 -10 21z"/>
<path d="M1261 1908 c-7 -11 -8 -18 -3 -14 5 3 26 -10 48 -29 52 -47 88 -61
117 -46 21 11 21 11 -4 6 -31 -6 -117 47 -135 83 l-10 21 -13 -21z"/>
<path d="M1165 1910 c-3 -5 -1 -10 4 -10 6 0 11 5 11 10 0 6 -2 10 -4 10 -3 0
-8 -4 -11 -10z"/>
<path d="M1330 1910 c8 -5 20 -10 25 -10 6 0 3 5 -5 10 -8 5 -19 10 -25 10 -5
0 -3 -5 5 -10z"/>
<path d="M1965 1878 c-14 -35 -12 -48 10 -48 7 0 18 -12 23 -27 l10 -28 1 25
c1 14 -8 33 -20 43 -19 17 -20 20 -5 43 10 14 12 24 6 24 -6 0 -17 -15 -25
-32z"/>
<path d="M870 1892 c0 -4 9 -8 20 -9 11 -1 20 2 20 8 0 5 -9 9 -20 9 -11 0
-20 -4 -20 -8z"/>
<path d="M1440 1890 l-25 -8 28 -1 c15 -1 27 4 27 9 0 6 -1 10 -2 9 -2 -1 -14
-5 -28 -9z"/>
<path d="M1338 1883 c7 -3 16 -2 19 1 4 3 -2 6 -13 5 -11 0 -14 -3 -6 -6z"/>
<path d="M1387 1883 c-10 -9 -9 -23 1 -23 5 0 9 7 9 15 0 17 -1 18 -10 8z"/>
<path d="M2032 1858 c16 -16 24 -19 26 -10 4 16 3 18 -26 27 l-23 7 23 -24z"/>
<path d="M925 1854 c-23 -10 -25 -13 -10 -13 21 -1 53 15 45 22 -3 2 -18 -2
-35 -9z"/>
<path d="M970 1808 c-12 -10 -17 -18 -12 -18 6 0 14 5 17 10 3 6 15 10 25 10
10 0 21 4 24 8 9 15 -32 7 -54 -10z"/>
<path d="M2045 1801 c-3 -10 -21 -26 -40 -36 -38 -17 -44 -25 -20 -25 22 0 91
65 77 74 -6 3 -13 -2 -17 -13z"/>
<path d="M1956 1785 c-9 -26 -7 -32 5 -12 6 10 9 21 6 23 -2 3 -7 -2 -11 -11z"/>
<path d="M1260 1756 c0 -9 4 -16 9 -16 5 0 15 -16 21 -36 7 -19 14 -34 16 -31
6 6 -18 71 -33 85 -11 11 -13 11 -13 -2z"/>
<path d="M1345 1740 c3 -5 8 -10 11 -10 2 0 4 5 4 10 0 6 -5 10 -11 10 -5 0
-7 -4 -4 -10z"/>
<path d="M1940 1731 c0 -25 6 -27 13 -6 4 8 2 17 -3 20 -6 4 -10 -3 -10 -14z"/>
<path d="M970 1724 c0 -21 27 -47 35 -34 3 5 1 10 -5 10 -7 0 -10 6 -7 14 3 8
-1 17 -9 20 -8 3 -14 -1 -14 -10z"/>
<path d="M1885 1728 c-6 -16 -1 -45 8 -54 4 -4 7 -12 7 -18 0 -6 -5 -4 -10 4
-7 11 -9 5 -6 -20 2 -19 -1 -41 -8 -49 -9 -12 -8 -14 5 -9 12 5 14 0 11 -23
-2 -16 -8 -26 -13 -24 -4 3 -6 11 -3 18 3 8 -4 13 -16 13 -12 0 -16 -4 -11 -9
5 -5 7 -15 5 -22 -3 -7 -1 -16 5 -20 7 -4 7 -10 -1 -19 -11 -11 -15 -10 -25 3
-6 9 -15 12 -20 7 -4 -5 -2 -11 5 -13 15 -6 16 -33 1 -33 -5 0 -7 5 -4 10 4 7
-2 9 -17 5 -16 -4 -29 -1 -38 10 -7 9 -16 12 -19 6 -3 -5 -6 10 -6 34 0 35 3
41 13 32 7 -6 11 -19 9 -29 -3 -10 -1 -18 4 -18 5 0 10 12 10 28 1 15 2 34 3
42 1 8 -2 20 -6 26 -5 6 -2 17 7 24 12 10 15 10 16 -1 0 -8 2 -32 3 -54 2 -22
-1 -46 -7 -53 -5 -7 -7 -15 -3 -19 3 -3 6 -1 6 5 0 7 7 12 15 12 17 0 21 35 5
45 -5 3 -10 11 -10 17 0 7 6 6 15 -2 10 -9 15 -9 15 -1 0 6 -4 11 -8 11 -5 0
-14 18 -21 40 -6 22 -16 40 -21 40 -5 0 -7 -6 -4 -13 3 -8 -2 -19 -10 -26 -10
-9 -12 -20 -6 -42 9 -29 -3 -42 -14 -14 -11 29 -24 15 -21 -22 2 -23 -2 -42
-12 -52 -14 -13 -14 -16 3 -22 11 -3 25 -4 32 -2 9 4 10 -1 4 -18 -12 -31 -32
-36 -39 -10 -4 17 -7 18 -19 6 -17 -17 -18 -21 -1 -23 49 -6 60 -10 68 -23 8
-10 9 -9 4 7 -3 14 1 26 12 35 11 9 14 10 9 2 -4 -7 -2 -13 3 -13 15 0 -19
-68 -37 -75 -8 -3 -22 1 -32 10 -9 8 -20 12 -23 8 -12 -11 -8 -23 8 -23 8 0
15 -4 15 -10 0 -5 3 -9 8 -9 20 3 23 -3 11 -18 -10 -11 -10 -14 -1 -9 6 4 12
3 12 -3 0 -18 -17 -21 -30 -6 -7 8 -9 15 -4 15 5 1 -3 7 -17 15 -33 18 -83
100 -75 123 5 13 3 13 -9 -2 -15 -20 -15 -20 -16 0 -1 10 -1 30 0 44 0 23 0
23 -9 -4 -7 -23 -5 -36 10 -61 12 -20 16 -35 10 -45 -7 -12 -11 -10 -20 10
l-11 25 6 -25 c10 -42 10 -45 0 -50 -5 -3 -12 8 -15 23 l-5 28 -14 -23 c-7
-13 -10 -20 -5 -15 4 4 14 -7 21 -24 10 -23 18 -30 32 -26 14 3 17 0 13 -15
-2 -11 -11 -22 -18 -25 -8 -3 -14 -9 -14 -15 0 -5 4 -7 9 -4 5 3 12 -1 15 -10
9 -23 7 -28 -6 -16 -7 5 -24 8 -37 6 -18 -3 -22 -1 -17 12 5 14 1 16 -23 11
-17 -4 -33 -2 -36 3 -3 6 -1 10 5 10 7 0 10 6 7 14 -7 19 17 51 31 42 7 -4 12
-14 12 -21 0 -17 36 -39 44 -27 2 4 -11 21 -30 36 -28 22 -38 25 -49 16 -12
-10 -15 -9 -15 4 0 9 -6 16 -14 16 -7 0 -19 7 -26 15 -9 10 -9 15 -1 15 6 0
11 -4 11 -10 0 -5 6 -10 13 -10 6 0 -3 14 -22 30 -19 17 -35 38 -36 48 0 10
-4 23 -8 30 -6 8 -3 10 8 6 9 -4 14 -13 11 -20 -3 -7 -1 -16 4 -19 6 -4 10 4
10 17 0 13 -9 29 -21 36 -16 10 -18 16 -9 27 8 10 9 19 1 32 -10 17 -10 17
-11 -2 -1 -17 -3 -16 -16 8 -12 23 -18 26 -34 17 -11 -6 -20 -7 -20 -3 0 4 -5
0 -11 -10 -8 -14 -7 -24 6 -43 9 -13 13 -29 9 -35 -4 -6 -11 -2 -18 12 -6 12
-18 25 -26 27 -11 4 -10 1 3 -12 9 -10 15 -22 12 -27 -4 -5 0 -9 7 -10 23 -1
-26 -18 -54 -18 -16 -1 -28 -5 -28 -11 0 -10 54 -3 81 11 9 5 20 5 24 1 5 -4
5 -2 2 5 -4 6 -1 13 5 16 10 3 9 12 -4 35 -23 39 -23 49 1 28 13 -12 19 -13
17 -4 0 7 4 13 9 13 6 0 9 -9 7 -20 -2 -16 0 -17 8 -5 5 8 10 11 11 5 3 -22
-3 -51 -14 -63 -8 -10 -4 -19 17 -38 23 -22 25 -28 14 -42 -10 -12 -10 -14 0
-8 7 4 24 -4 42 -23 17 -17 26 -32 20 -36 -5 -3 -10 -11 -10 -16 0 -6 5 -7 10
-4 6 3 10 1 10 -5 0 -7 -6 -10 -12 -7 -7 2 -13 13 -12 25 0 12 -5 18 -12 15
-6 -2 -9 -13 -7 -24 4 -15 2 -18 -11 -13 -12 4 -15 2 -10 -9 3 -9 13 -13 25
-10 15 4 18 2 13 -12 -4 -10 -14 -15 -25 -12 -11 3 -19 0 -19 -6 -1 -17 -30
24 -30 42 0 11 4 10 15 -5 14 -17 14 -17 3 10 -7 15 -14 24 -16 18 -2 -6 -11
-8 -20 -5 -14 5 -15 3 -4 -8 6 -7 12 -23 12 -36 0 -14 6 -23 15 -23 8 0 15 -4
15 -10 0 -5 5 -10 11 -10 5 0 7 5 4 10 -3 5 2 10 11 10 16 0 16 -2 -1 -20 -10
-11 -15 -23 -12 -27 4 -3 7 -1 7 5 0 6 7 9 15 6 11 -5 15 1 15 19 0 14 7 28
16 31 13 5 15 1 12 -19 -3 -13 -2 -22 2 -20 5 3 11 -2 14 -11 5 -13 2 -15 -13
-11 -11 3 -26 -2 -32 -9 -7 -8 -19 -12 -27 -9 -10 3 -12 0 -8 -10 3 -8 1 -15
-4 -15 -6 0 -10 6 -10 13 0 8 -3 8 -9 -2 -10 -16 -51 -23 -51 -9 0 4 -4 8 -9
8 -5 0 -7 -9 -4 -21 4 -14 9 -17 16 -10 17 17 22 13 22 -14 0 -29 -2 -30 -21
-10 -9 8 -20 15 -26 15 -5 0 -8 -7 -4 -15 3 -9 0 -15 -9 -15 -8 0 -15 -4 -15
-10 0 -13 13 -13 27 1 7 7 17 8 30 1 13 -7 24 -6 38 4 23 17 36 18 33 2 -6
-26 -23 -35 -55 -28 -25 6 -36 4 -49 -12 -17 -18 -17 -19 2 -12 10 4 16 4 12
-1 -8 -9 20 -40 29 -32 3 3 -2 13 -11 22 -9 9 -16 22 -15 28 0 9 2 8 6 0 2 -7
15 -13 27 -13 12 0 28 -6 35 -12 7 -7 12 -8 11 -3 -4 21 0 35 11 35 7 0 9 -10
5 -25 -7 -29 5 -33 25 -8 10 11 10 14 2 9 -23 -13 -13 9 16 36 15 15 31 24 35
21 10 -10 7 -35 -3 -28 -5 3 -12 1 -15 -4 -4 -5 -1 -13 5 -17 9 -5 7 -11 -6
-20 -10 -8 -16 -16 -14 -18 8 -8 30 10 33 26 1 9 8 23 14 31 9 10 10 17 2 22
-6 3 -8 11 -4 16 3 5 10 6 16 3 7 -4 8 -2 4 4 -8 14 3 15 23 3 11 -7 10 -11
-5 -20 -29 -16 -7 -13 26 4 28 14 31 14 50 -5 17 -17 24 -18 45 -8 14 6 25 15
25 20 0 13 -12 10 -32 -9 -12 -10 -18 -12 -18 -4 0 7 -4 9 -10 6 -5 -3 -10 1
-10 9 0 33 -49 40 -105 16 -23 -10 -97 -40 -99 -40 0 0 -2 16 -3 35 -1 25 2
35 13 35 9 0 12 5 8 12 -5 8 -2 9 11 4 29 -11 56 20 44 51 -5 13 -9 25 -9 27
0 1 9 2 20 3 11 1 27 -8 35 -20 8 -12 19 -21 23 -20 4 1 6 -5 4 -13 -2 -8 1
-14 5 -15 4 0 16 -2 26 -4 15 -3 13 1 -7 22 -14 14 -23 30 -19 36 4 7 8 6 11
-3 7 -20 35 -40 46 -33 5 4 6 1 2 -5 -4 -7 -3 -12 3 -12 5 0 12 9 16 19 4 13
12 18 23 15 55 -18 71 -28 86 -57 9 -18 14 -23 10 -12 -4 11 -7 32 -6 48 1 23
-3 27 -28 28 -70 3 -96 2 -113 -6 -15 -6 -16 -4 -8 19 8 20 7 27 -7 35 -9 6
-15 11 -12 12 3 0 19 3 35 5 24 4 28 3 18 -7 -22 -22 -15 -44 12 -44 14 0 25
3 25 8 0 4 7 7 15 7 8 0 15 -4 15 -9 0 -4 16 -7 35 -5 20 1 33 -2 29 -7 -3 -5
-1 -9 5 -9 5 0 18 -3 28 -7 11 -4 7 3 -9 16 -29 24 -37 43 -15 40 35 -4 97 2
97 11 0 5 -13 7 -29 4 -20 -4 -30 -2 -34 10 -6 14 -3 15 13 6 23 -13 27 2 5
20 -18 15 -20 46 -3 56 8 5 9 0 5 -15 -4 -17 -2 -21 9 -17 9 4 18 -3 24 -17 5
-12 9 -15 9 -7 0 8 -6 24 -14 34 -11 14 -12 23 -4 32 6 7 8 18 4 24 -3 5 -1
10 6 10 7 0 9 -10 6 -25 -2 -14 0 -24 5 -23 5 2 10 39 13 83 2 44 5 87 7 95 7
26 29 61 36 56 18 -11 78 33 105 77 16 26 27 50 24 53 -3 3 -18 -19 -34 -48
-25 -48 -32 -54 -73 -62 -25 -5 -48 -14 -51 -19 -4 -5 -9 -5 -13 2 -4 6 -3 11
3 11 5 0 8 17 6 38 -1 20 -3 49 -4 65 -1 27 -18 37 -26 15z m0 -256 c-3 -3
-11 0 -18 7 -9 10 -8 11 6 5 10 -3 15 -9 12 -12z m-485 -22 c0 -5 -5 -10 -11
-10 -5 0 -7 5 -4 10 3 6 8 10 11 10 2 0 4 -4 4 -10z m437 -11 c-9 -6 -17 -18
-17 -27 1 -15 2 -15 14 1 8 10 17 14 20 9 10 -16 -3 -38 -30 -52 -17 -10 -21
-16 -12 -21 7 -4 9 -11 5 -15 -9 -9 -37 15 -37 32 0 7 8 11 19 9 15 -3 19 1
15 16 -2 10 -6 28 -9 40 -3 15 0 19 10 15 8 -3 17 -1 21 5 3 6 9 7 12 4 4 -4
-1 -11 -11 -16z m43 0 c0 -6 -4 -7 -10 -4 -5 3 -10 11 -10 16 0 6 5 7 10 4 6
-3 10 -11 10 -16z m-220 -101 c0 -11 8 -18 21 -18 11 0 18 -3 16 -7 -3 -5 6
-16 19 -26 22 -17 24 -17 34 2 5 11 11 31 12 45 l2 25 26 -22 c14 -12 27 -24
30 -26 3 -2 -7 -1 -22 1 -19 4 -28 1 -28 -8 0 -8 5 -13 11 -11 6 1 14 -4 17
-12 3 -9 0 -11 -7 -7 -16 11 -41 -12 -34 -31 5 -13 3 -13 -15 -2 -11 7 -26 22
-32 34 -7 13 -9 14 -6 3 4 -11 0 -18 -9 -18 -8 0 -15 -4 -15 -10 0 -5 -7 -10
-16 -10 -9 0 -14 6 -11 13 2 6 9 12 15 12 5 0 14 3 18 8 4 4 2 7 -5 7 -8 0
-11 7 -7 15 3 8 1 15 -4 15 -16 0 -25 -5 -23 -12 1 -3 -4 -9 -12 -12 -18 -7
-19 6 -3 22 10 10 8 14 -10 18 -28 8 -29 24 -1 24 11 0 17 -4 14 -10 -3 -5 -1
-10 4 -10 16 0 13 20 -4 26 -8 4 -15 16 -15 28 0 20 1 20 20 -4 11 -14 20 -33
20 -42z m100 -148 c0 -5 -2 -10 -4 -10 -3 0 -8 5 -11 10 -3 6 -1 10 4 10 6 0
11 -4 11 -10z m-350 -76 c0 -14 -21 -19 -33 -7 -9 9 13 34 24 27 5 -3 9 -12 9
-20z m50 -48 c0 -3 -4 -8 -10 -11 -5 -3 -10 -1 -10 4 0 6 5 11 10 11 6 0 10
-2 10 -4z"/>
<path d="M1040 1711 c0 -10 39 -62 55 -73 14 -11 25 -10 25 2 0 6 -5 10 -11
10 -13 0 -55 51 -51 62 1 5 -2 8 -8 8 -5 0 -10 -4 -10 -9z"/>
<path d="M1132 1716 c5 -5 -1 -16 -12 -23 -11 -8 -18 -19 -14 -24 3 -6 11 -3
18 7 12 15 15 15 47 -2 29 -15 31 -19 14 -22 -38 -7 -35 -17 4 -14 l39 4 -21
24 c-11 13 -25 24 -31 24 -5 0 -19 8 -30 17 -12 10 -18 14 -14 9z"/>
<path d="M1257 1665 c-10 -14 -13 -25 -7 -25 5 0 10 4 10 9 0 5 10 7 21 4 19
-5 20 -4 10 16 -14 26 -12 26 -34 -4z"/>
<path d="M1851 1666 c-8 -13 -10 -29 -7 -35 4 -6 2 -11 -3 -11 -6 0 -12 10
-12 23 -1 18 -2 19 -6 4 -3 -11 4 -27 16 -38 12 -11 21 -18 22 -17 3 9 8 98 5
98 -1 0 -8 -11 -15 -24z"/>
<path d="M1010 1677 c0 -3 12 -12 26 -22 15 -9 23 -12 20 -6 -7 11 -46 35 -46
28z"/>
<path d="M933 1655 c0 -8 7 -15 15 -15 12 0 12 3 2 15 -7 8 -13 15 -15 15 -1
0 -2 -7 -2 -15z"/>
<path d="M994 1651 c20 -22 26 -25 26 -13 0 4 -10 13 -22 21 -23 14 -23 14 -4
-8z"/>
<path d="M1360 1664 c1 -13 29 -48 34 -43 2 2 -4 15 -15 28 -10 13 -19 19 -19
15z"/>
<path d="M1625 1640 c10 -11 20 -20 23 -20 3 0 -3 9 -13 20 -10 11 -20 20 -23
20 -3 0 3 -9 13 -20z"/>
<path d="M971 1634 c0 -11 3 -14 6 -6 3 7 2 16 -1 19 -3 4 -6 -2 -5 -13z"/>
<path d="M1710 1635 c0 -5 5 -17 10 -25 5 -8 10 -10 10 -5 0 6 -5 17 -10 25
-5 8 -10 11 -10 5z"/>
<path d="M910 1626 c0 -2 7 -9 15 -16 9 -7 15 -8 15 -2 0 5 -7 12 -15 16 -8 3
-15 4 -15 2z"/>
<path d="M1010 1610 c-14 -11 -31 -20 -37 -20 -7 0 -13 -6 -13 -13 0 -7 -10
-17 -22 -22 -14 -7 -22 -20 -23 -40 0 -16 -5 -41 -9 -55 -5 -17 -5 -22 2 -15
5 6 15 28 22 50 12 37 32 66 45 65 17 -1 18 1 5 11 -13 9 -13 10 0 6 9 -2 15
-14 14 -30 -1 -18 4 -25 16 -24 15 1 15 4 4 26 -11 21 -11 28 3 43 9 10 22 18
30 18 8 0 11 5 8 10 -9 14 -16 12 -45 -10z"/>
<path d="M1163 1623 c-7 -2 -13 -9 -13 -15 0 -6 6 -5 15 2 13 11 14 10 10 -3
-4 -8 -2 -18 4 -22 6 -3 11 1 11 9 0 10 6 13 17 9 11 -4 12 -8 5 -11 -7 -2
-12 -10 -12 -18 0 -8 -6 -23 -12 -34 -11 -17 -10 -22 1 -29 16 -10 74 7 66 19
-6 10 14 24 34 25 8 0 15 6 17 13 1 7 0 8 -3 2 -8 -17 -20 -11 -28 13 -6 21
-7 21 -16 -8 -5 -16 -20 -38 -34 -48 -27 -19 -35 -8 -10 13 16 13 20 47 7 66
-9 14 -43 24 -59 17z m54 -65 c-3 -8 -6 -5 -6 6 -1 11 2 17 5 13 3 -3 4 -12 1
-19z"/>
<path d="M895 1600 c3 -5 8 -10 11 -10 2 0 4 5 4 10 0 6 -5 10 -11 10 -5 0 -7
-4 -4 -10z"/>
<path d="M1056 1592 c-3 -6 1 -13 10 -16 24 -9 34 -7 34 6 0 6 -3 8 -7 5 -3
-4 -12 -2 -19 4 -7 6 -14 6 -18 1z"/>
<path d="M1150 1570 c6 -11 13 -20 16 -20 2 0 0 9 -6 20 -6 11 -13 20 -16 20
-2 0 0 -9 6 -20z"/>
<path d="M1667 1561 c-4 -17 -3 -21 5 -13 5 5 8 16 6 23 -3 8 -7 3 -11 -10z"/>
<path d="M1690 1571 c0 -5 5 -13 10 -16 6 -3 10 -2 10 4 0 5 -4 13 -10 16 -5
3 -10 2 -10 -4z"/>
<path d="M1026 1555 c-3 -8 -2 -15 3 -15 5 0 14 7 21 15 10 12 10 15 -3 15 -8
0 -17 -7 -21 -15z"/>
<path d="M1140 1540 c0 -5 5 -10 11 -10 5 0 7 5 4 10 -3 6 -8 10 -11 10 -2 0
-4 -4 -4 -10z"/>
<path d="M1693 1525 c0 -8 4 -12 9 -9 5 3 6 10 3 15 -9 13 -12 11 -12 -6z"/>
<path d="M1097 1519 c7 -7 15 -10 18 -7 3 3 -2 9 -12 12 -14 6 -15 5 -6 -5z"/>
<path d="M1660 1519 c0 -5 -5 -7 -12 -3 -7 4 -8 3 -4 -4 4 -6 13 -9 21 -6 8 4
12 10 9 15 -7 12 -14 11 -14 -2z"/>
<path d="M1830 1520 c0 -5 5 -10 11 -10 5 0 7 5 4 10 -3 6 -8 10 -11 10 -2 0
-4 -4 -4 -10z"/>
<path d="M995 1500 c3 -5 8 -10 11 -10 2 0 4 5 4 10 0 6 -5 10 -11 10 -5 0 -7
-4 -4 -10z"/>
<path d="M1054 1488 c3 -10 -2 -19 -12 -22 -13 -3 -12 -4 3 -3 11 1 26 -2 34
-7 8 -5 16 -4 21 4 6 10 9 9 13 -1 3 -8 6 -9 6 -3 1 7 18 8 50 4 28 -3 47 -2
45 2 -3 5 13 7 35 4 23 -2 41 -1 41 3 0 5 -50 8 -111 8 -83 0 -114 4 -121 14
-8 11 -9 10 -4 -3z"/>
<path d="M1662 1479 c2 -6 8 -10 13 -10 5 0 11 4 13 10 2 6 -4 11 -13 11 -9 0
-15 -5 -13 -11z"/>
<path d="M995 1450 c3 -5 10 -10 16 -10 5 0 9 5 9 10 0 6 -7 10 -16 10 -8 0
-12 -4 -9 -10z"/>
<path d="M1640 1458 c0 -4 9 -22 20 -40 12 -20 20 -26 20 -17 0 16 -39 72 -40
57z"/>
<path d="M1047 1419 c7 -7 15 -10 18 -7 3 3 -2 9 -12 12 -14 6 -15 5 -6 -5z"/>
<path d="M1710 1395 c13 -14 26 -23 28 -20 7 7 -29 45 -41 45 -6 0 0 -11 13
-25z"/>
<path d="M1045 1373 c19 -45 25 -52 25 -29 0 9 4 14 10 11 6 -3 7 1 3 10 -4
13 -8 14 -14 4 -6 -10 -11 -6 -18 14 -6 15 -13 27 -16 27 -3 0 2 -17 10 -37z"/>
<path d="M1140 1396 c7 -7 14 -6 21 1 9 9 7 12 -9 10 -14 -1 -18 -5 -12 -11z"/>
<path d="M1200 1400 c0 -5 5 -10 11 -10 5 0 7 5 4 10 -3 6 -8 10 -11 10 -2 0
-4 -4 -4 -10z"/>
<path d="M1218 1389 c-9 -9 -18 -25 -21 -36 -3 -10 -5 -2 -6 17 l-1 34 -16
-23 c-12 -16 -19 -20 -27 -12 -6 6 -17 11 -25 11 -10 0 -10 -3 2 -16 11 -10
14 -24 10 -40 -5 -18 0 -32 14 -47 10 -12 22 -29 25 -37 4 -10 6 -7 6 7 1 13
-7 28 -17 34 -13 8 -17 20 -14 38 l5 26 13 -30 c8 -18 13 -23 14 -12 0 9 4 17
9 17 5 0 14 15 20 33 9 23 14 28 20 19 6 -10 10 -9 14 7 7 28 -4 32 -25 10z
m-36 -63 c-3 -5 -9 -1 -12 10 -4 10 -5 23 -2 28 3 5 9 1 12 -10 4 -10 5 -23 2
-28z"/>
<path d="M1494 1399 c-7 -12 4 -29 19 -28 9 0 9 2 0 6 -7 2 -13 9 -13 14 0 6
8 6 19 -1 24 -12 34 -13 27 -1 -8 13 -45 20 -52 10z"/>
<path d="M1372 1343 c5 -7 14 -10 19 -7 16 10 9 23 -10 21 -15 -1 -17 -4 -9
-14z"/>
<path d="M1104 1338 c3 -9 0 -19 -7 -21 -7 -2 -9 -8 -4 -12 15 -16 30 12 17
32 -9 14 -10 15 -6 1z"/>
<path d="M980 1311 c0 -5 5 -13 10 -16 6 -3 10 -2 10 4 0 5 -4 13 -10 16 -5 3
-10 2 -10 -4z"/>
<path d="M1041 1291 c-7 -5 -10 -14 -6 -21 6 -9 2 -9 -16 0 l-24 13 20 -22 20
-23 9 24 c6 13 15 26 21 30 15 11 -7 10 -24 -1z"/>
<path d="M1307 1273 c3 -7 0 -13 -6 -13 -6 0 -11 -5 -11 -11 0 -5 5 -7 10 -4
6 4 11 -6 11 -22 1 -15 3 -21 6 -12 2 10 13 19 24 22 10 3 19 10 19 16 0 15
-27 14 -34 -1 -3 -7 -4 -1 -1 13 3 17 0 26 -9 26 -8 0 -12 -6 -9 -14z"/>
<path d="M1507 1276 c-4 -10 -1 -13 8 -9 8 3 12 9 9 14 -7 12 -11 11 -17 -5z"/>
<path d="M1211 1264 c0 -11 3 -14 6 -6 3 7 2 16 -1 19 -3 4 -6 -2 -5 -13z"/>
<path d="M1096 1262 c-2 -4 -1 -14 4 -22 5 -8 5 -22 -1 -32 -6 -12 -6 -18 1
-18 5 0 10 7 10 15 0 9 6 12 15 9 18 -7 19 -3 3 31 -11 25 -23 32 -32 17z"/>
<path d="M1141 1255 c1 -19 18 -51 18 -35 0 8 -4 22 -9 30 -5 8 -9 11 -9 5z"/>
<path d="M1232 1236 c-11 -24 -7 -36 10 -36 5 0 6 6 2 13 -5 9 -4 9 5 1 16
-14 10 -60 -7 -56 -6 1 -12 -3 -12 -9 0 -5 -5 -7 -10 -4 -6 4 -8 11 -5 16 4 5
1 9 -4 9 -6 0 -11 10 -11 23 0 18 -2 19 -10 7 -8 -12 -10 -12 -10 -1 0 8 -3
11 -6 8 -4 -4 -1 -14 7 -23 12 -15 10 -16 -20 -9 l-34 7 22 -23 c22 -24 23
-24 37 -5 14 19 14 19 14 -2 0 -26 11 -27 51 -6 24 12 29 20 23 36 -4 14 -2
18 5 14 14 -9 15 -76 1 -76 -6 0 -9 -3 -9 -7 4 -22 -3 -24 -22 -7 -21 19 -21
19 -18 -1 3 -13 -2 -20 -11 -20 -8 0 -14 8 -14 18 1 9 -2 17 -7 17 -5 0 -9 -4
-9 -9 0 -5 -12 -8 -27 -8 l-26 0 24 13 c15 8 18 13 9 14 -21 0 -40 -19 -34
-34 3 -7 17 -11 34 -8 17 2 30 0 30 -6 0 -6 10 -14 23 -18 12 -3 30 -13 40
-22 12 -11 21 -12 28 -5 7 7 1 14 -20 23 -17 7 -31 17 -31 22 0 5 9 4 20 -2
11 -6 19 -7 18 -3 -1 4 6 20 16 35 22 33 14 84 -15 93 -21 7 -25 20 -9 30 6 3
10 10 10 16 0 5 -4 9 -10 9 -5 0 -10 -7 -10 -15 0 -8 -4 -15 -10 -15 -5 0 -7
7 -4 15 10 24 -2 17 -14 -9z"/>
<path d="M1881 1208 c0 -13 4 -32 9 -43 7 -16 9 -13 9 17 1 20 -3 40 -9 43 -6
3 -10 -4 -9 -17z"/>
<path d="M1329 1193 c-3 -18 -2 -33 2 -33 4 0 15 -3 25 -7 11 -4 15 -2 13 6
-3 7 -9 11 -14 9 -5 -2 -12 11 -15 27 l-6 30 -5 -32z"/>
<path d="M1356 1205 c4 -9 15 -20 25 -26 21 -11 22 -9 13 16 -5 13 -8 14 -15
3 -7 -10 -9 -9 -9 5 0 9 -4 17 -10 17 -5 0 -7 -7 -4 -15z"/>
<path d="M1511 1168 c-14 -22 -14 -58 -1 -58 6 0 10 4 10 9 0 5 9 11 20 14 27
7 28 56 1 54 -10 0 -24 -9 -30 -19z m29 -12 c0 -8 -7 -16 -15 -20 -8 -3 -15
-1 -15 4 0 6 5 10 11 10 5 0 7 5 4 10 -3 6 -1 10 4 10 6 0 11 -6 11 -14z"/>
<path d="M1663 1172 c-17 -10 -31 -24 -30 -34 1 -9 5 -14 9 -12 4 3 8 -2 8
-10 0 -9 4 -16 10 -16 5 0 6 8 3 17 -5 13 -2 15 12 10 15 -6 16 -5 5 8 -10 12
-10 15 2 15 7 0 14 9 14 20 0 11 0 20 -1 19 0 0 -14 -8 -32 -17z"/>
<path d="M1090 1165 c0 -8 5 -15 11 -15 5 0 7 -4 4 -10 -3 -5 1 -10 9 -10 9 0
16 7 16 15 0 8 -5 15 -11 15 -5 0 -7 5 -4 10 3 6 -1 10 -9 10 -9 0 -16 -7 -16
-15z"/>
<path d="M1715 1160 c3 -5 11 -10 16 -10 6 0 7 5 4 10 -3 6 -11 10 -16 10 -6
0 -7 -4 -4 -10z"/>
<path d="M1706 1125 c4 -8 11 -15 16 -15 6 0 5 6 -2 15 -7 8 -14 15 -16 15 -2
0 -1 -7 2 -15z"/>
<path d="M1890 1130 c0 -6 23 -33 52 -60 48 -45 51 -49 45 -85 -8 -51 -56
-126 -135 -216 -36 -41 -59 -68 -52 -61 8 6 18 12 23 12 4 0 5 -6 1 -12 -6
-10 -4 -10 8 0 8 7 22 10 30 7 9 -4 18 0 21 9 3 8 0 17 -8 20 -9 3 -12 0 -8
-10 4 -10 0 -12 -11 -8 -23 9 -20 16 19 54 36 35 44 35 23 -1 -11 -17 -10 -22
6 -34 22 -16 48 -4 67 32 16 30 32 15 23 -21 -3 -15 -9 -25 -12 -22 -5 6 -38
-35 -35 -44 1 -3 -4 -12 -12 -20 -7 -8 -16 -30 -18 -49 -3 -18 -10 -38 -16
-44 -6 -6 -11 -18 -11 -26 0 -9 -13 -42 -29 -74 -16 -31 -25 -57 -20 -57 6 0
7 -4 4 -10 -3 -5 -1 -10 5 -10 7 0 10 6 7 14 -3 8 3 24 13 36 11 13 22 38 26
56 3 19 9 32 13 30 4 -3 8 4 9 15 4 43 6 49 14 49 4 0 8 9 8 20 0 24 20 70 31
70 9 0 49 82 49 99 0 6 -5 10 -11 8 -18 -4 -21 19 -4 36 8 9 15 20 15 26 0 6
5 11 10 11 13 0 13 -23 -1 -37 -13 -13 -4 -33 14 -33 7 0 6 4 -3 11 -11 8 -12
12 -2 16 6 2 12 14 12 24 0 11 5 17 10 14 6 -3 10 3 10 14 0 12 5 21 10 21 6
0 10 9 10 20 0 12 -7 20 -16 20 -12 0 -14 5 -9 18 4 9 8 29 8 44 1 22 3 25 18
17 10 -5 23 -17 28 -27 6 -9 11 -14 11 -9 0 4 11 0 25 -9 14 -9 34 -14 46 -11
16 4 19 2 14 -11 -3 -9 -3 -14 0 -10 11 11 65 -13 65 -28 0 -8 5 -14 12 -14 6
0 28 -7 49 -16 34 -16 36 -19 29 -45 -5 -17 -5 -31 1 -34 5 -4 9 7 9 23 0 41
10 45 36 15 20 -24 38 -83 25 -83 -7 0 -4 -306 3 -360 2 -19 5 -63 7 -98 1
-34 5 -65 9 -67 10 -6 1 -45 -9 -45 -4 0 -8 -7 -8 -15 0 -18 17 -20 17 -2 0 6
5 4 11 -7 9 -15 13 -16 20 -5 5 8 9 10 9 4 0 -5 -5 -17 -11 -25 -8 -11 -12
-12 -16 -2 -4 10 -32 18 -33 10 -1 -2 -3 -36 -7 -77 -4 -55 -2 -72 6 -67 7 4
9 16 6 27 -4 10 -2 19 4 19 5 0 12 -10 14 -23 2 -12 5 -4 6 18 0 23 -4 46 -10
52 -16 16 -3 32 21 26 10 -3 19 -8 18 -12 -5 -19 15 -111 24 -111 10 0 8 32
-7 130 -8 51 -14 62 -25 55 -9 -5 -14 7 -12 26 1 4 -3 46 -9 94 -13 121 -18
297 -9 348 5 26 4 44 -2 48 -13 9 -12 20 4 31 9 7 10 11 1 14 -7 3 -9 14 -3
33 6 22 4 30 -11 39 -11 7 -19 17 -19 23 0 6 15 1 33 -11 17 -12 48 -28 67
-37 19 -8 40 -22 47 -32 12 -14 12 -14 7 2 -6 17 -5 18 17 5 13 -7 27 -17 31
-23 5 -6 8 -5 8 4 0 9 4 10 13 4 6 -6 32 -15 57 -22 26 -7 53 -23 64 -38 20
-27 20 -28 -43 -203 -18 -50 -57 -187 -66 -228 -2 -9 -8 -37 -14 -62 -7 -30
-7 -47 0 -51 7 -4 4 -9 -5 -12 -9 -4 -15 -10 -14 -14 2 -8 -9 -76 -18 -105 -3
-11 0 -18 9 -18 8 0 17 10 20 23 3 12 24 72 47 132 22 61 41 120 42 133 0 12
4 22 8 22 4 0 10 9 13 20 6 24 1 25 -19 6 -8 -8 -14 -26 -14 -40 0 -14 -5 -26
-11 -26 -5 0 -7 -5 -4 -10 3 -6 2 -10 -3 -10 -5 0 -7 -11 -5 -24 3 -13 0 -27
-6 -30 -6 -4 -11 -19 -11 -34 0 -17 -3 -23 -10 -16 -11 11 -2 74 10 74 5 0 6
9 3 19 -3 10 3 31 12 45 13 19 14 26 4 26 -7 0 -3 11 12 27 13 14 18 23 12 19
-21 -12 -11 43 21 119 30 70 49 133 54 172 4 42 4 42 30 29 30 -15 73 -61 92
-96 10 -18 9 -24 -7 -36 -17 -14 -17 -14 4 -4 19 9 25 6 49 -25 15 -20 29 -33
32 -30 3 3 -4 15 -15 28 -12 12 -36 46 -54 76 -31 52 -112 117 -130 105 -5 -3
-7 1 -4 8 3 9 -15 21 -52 35 -32 12 -71 28 -88 34 -16 7 -38 14 -48 16 -10 1
-62 26 -117 54 -55 27 -109 52 -122 54 -12 3 -44 20 -72 38 -78 52 -165 93
-110 52 18 -14 18 -14 -3 -8 -13 3 -23 10 -23 17 0 6 -18 19 -41 29 -22 10
-50 28 -62 41 -12 12 -49 31 -82 41 -33 9 -66 22 -72 27 -9 7 -13 7 -13 -2z
m98 -42 c25 -7 32 -14 32 -33 0 -31 -3 -31 -38 3 -16 15 -38 33 -48 40 -18 12
-18 13 1 6 11 -3 35 -10 53 -16z m72 -79 c0 -14 -7 -43 -15 -62 -19 -46 -19
-53 0 -37 8 7 12 16 9 21 -3 5 2 6 10 3 14 -5 14 -9 1 -35 -13 -25 -18 -27
-34 -17 -12 7 -18 21 -17 39 1 15 -2 25 -7 22 -5 -3 -7 -14 -4 -24 3 -11 0
-19 -6 -19 -7 0 -5 -5 3 -10 13 -8 12 -16 -10 -56 -13 -26 -33 -49 -43 -52
-13 -3 -15 -7 -7 -12 9 -5 6 -10 -9 -15 -23 -7 -45 4 -23 12 6 3 10 9 6 14 -3
5 2 11 10 14 52 16 52 17 31 25 -12 4 -23 3 -27 -4 -4 -6 -10 -7 -14 -3 -4 4
1 16 11 27 14 15 21 17 31 9 10 -8 18 -7 29 5 9 9 12 16 6 16 -5 0 -13 -5 -17
-11 -4 -6 -10 -7 -15 -2 -6 6 1 28 16 55 14 25 26 62 27 82 1 29 4 34 15 24 7
-6 16 -8 20 -4 3 3 2 6 -4 6 -6 0 -8 12 -5 27 5 25 6 25 18 8 8 -10 14 -31 14
-46z m596 -910 c-15 -34 -15 -34 -9 -4 7 35 13 48 20 42 2 -3 -3 -20 -11 -38z
m-196 -29 c0 -5 -4 -10 -10 -10 -5 0 -10 5 -10 10 0 6 5 10 10 10 6 0 10 -4
10 -10z"/>
<path d="M1475 1120 c3 -5 8 -10 11 -10 2 0 4 5 4 10 0 6 -5 10 -11 10 -5 0
-7 -4 -4 -10z"/>
<path d="M1105 1110 c3 -10 -8 -29 -30 -50 l-35 -34 0 -92 c0 -95 5 -124 21
-124 6 0 6 7 1 18 -5 9 -10 56 -11 105 -1 79 1 90 22 111 12 12 32 28 42 34
19 10 19 12 2 29 -14 14 -17 14 -12 3z"/>
<path d="M1440 1105 c0 -8 4 -15 8 -15 5 0 9 7 9 15 0 8 -4 15 -9 15 -4 0 -8
-7 -8 -15z"/>
<path d="M1580 1064 l-25 -14 28 0 c17 0 27 5 27 15 0 8 -1 15 -2 14 -2 -1
-14 -7 -28 -15z"/>
<path d="M1456 971 c-4 -7 -5 -15 -2 -18 9 -9 19 4 14 18 -4 11 -6 11 -12 0z"/>
<path d="M850 959 c0 -5 5 -7 10 -4 6 3 10 8 10 11 0 2 -4 4 -10 4 -5 0 -10
-5 -10 -11z"/>
<path d="M1241 944 c0 -11 3 -14 6 -6 3 7 2 16 -1 19 -3 4 -6 -2 -5 -13z"/>
<path d="M1340 949 c0 -5 5 -7 10 -4 6 3 10 8 10 11 0 2 -4 4 -10 4 -5 0 -10
-5 -10 -11z"/>
<path d="M2137 928 c3 -18 10 -37 16 -43 7 -7 8 -6 3 3 -4 6 -2 12 4 12 6 0 5
11 -5 30 -20 39 -26 38 -18 -2z"/>
<path d="M965 940 c-3 -5 -1 -10 4 -10 6 0 11 5 11 10 0 6 -2 10 -4 10 -3 0
-8 -4 -11 -10z"/>
<path d="M2240 925 c-1 -5 -3 -24 -5 -42 -1 -17 -12 -41 -24 -54 -11 -13 -21
-29 -21 -36 0 -7 -5 -13 -11 -13 -5 0 -8 -4 -5 -9 9 -14 -5 -42 -17 -34 -6 4
-8 0 -4 -9 3 -9 0 -21 -6 -27 -8 -8 -8 -11 2 -11 7 0 15 9 18 20 3 11 9 18 13
15 5 -3 11 -1 15 5 3 5 1 10 -5 10 -6 0 -8 5 -5 10 4 6 11 8 16 5 5 -4 9 -2 9
4 0 5 -6 12 -12 14 -7 3 -3 6 9 6 12 1 24 5 27 10 4 5 -3 7 -14 4 -11 -3 -20
0 -20 6 0 6 5 11 11 11 15 0 41 68 36 99 -2 14 -5 22 -7 16z"/>
<path d="M2205 910 c-4 -6 -11 -7 -17 -4 -7 4 -8 2 -4 -4 7 -12 36 -5 36 9 0
12 -7 11 -15 -1z"/>
<path d="M2270 880 c0 -5 5 -10 11 -10 5 0 7 5 4 10 -3 6 -8 10 -11 10 -2 0
-4 -4 -4 -10z"/>
<path d="M2314 859 c8 -12 12 -27 9 -35 -2 -7 5 -23 16 -35 12 -13 21 -18 21
-13 0 6 -4 14 -9 20 -5 5 -11 23 -13 39 -3 29 -14 45 -31 45 -5 0 -1 -10 7
-21z"/>
<path d="M1405 860 c-3 -5 -1 -10 4 -10 6 0 11 5 11 10 0 6 -2 10 -4 10 -3 0
-8 -4 -11 -10z"/>
<path d="M2136 858 c3 -4 16 -7 29 -6 30 3 23 11 -9 13 -14 0 -22 -3 -20 -7z"/>
<path d="M1297 825 c-12 -17 -14 -26 -5 -31 6 -4 8 -3 4 4 -3 6 1 15 10 20 9
5 15 14 13 20 -2 5 -12 0 -22 -13z"/>
<path d="M2286 828 c2 -34 15 -68 26 -68 5 0 4 8 -2 19 -5 11 -10 31 -10 45 0
14 -4 26 -8 26 -4 0 -7 -10 -6 -22z"/>
<path d="M1478 828 c7 -7 12 -23 12 -36 0 -13 4 -21 10 -17 5 3 7 12 3 20 -3
9 1 15 8 15 8 0 5 6 -7 15 -23 17 -43 20 -26 3z"/>
<path d="M2131 833 c4 -22 -2 -43 -12 -43 -5 0 -8 4 -4 9 3 5 1 12 -4 15 -10
7 -9 -20 2 -30 4 -4 7 -14 7 -23 0 -14 -2 -14 -10 -1 -8 11 -9 7 -4 -15 4 -16
11 -34 16 -40 7 -7 8 -3 4 11 -3 11 1 40 9 64 18 50 18 60 5 60 -5 0 -9 -3 -9
-7z"/>
<path d="M1160 821 c0 -6 4 -13 10 -16 6 -3 7 1 4 9 -7 18 -14 21 -14 7z"/>
<path d="M1363 813 c11 -3 16 -11 13 -18 -4 -11 0 -12 21 -4 19 7 28 6 33 -2
5 -7 10 -8 14 -1 7 12 -19 23 -38 16 -8 -3 -17 -1 -21 5 -3 6 -14 10 -23 10
-15 -1 -14 -2 1 -6z"/>
<path d="M1660 810 c-9 -6 -10 -10 -3 -10 6 0 15 5 18 10 8 12 4 12 -15 0z"/>
<path d="M1224 799 c-4 -7 -3 -9 4 -5 5 3 13 0 15 -6 4 -9 6 -10 6 -1 1 17
-16 25 -25 12z"/>
<path d="M1030 774 c0 -8 5 -12 10 -9 6 3 10 10 10 16 0 5 -4 9 -10 9 -5 0
-10 -7 -10 -16z"/>
<path d="M1455 781 c-3 -6 -1 -11 5 -11 6 0 8 -4 5 -10 -3 -5 1 -10 11 -10 14
0 15 2 3 18 -7 9 -14 18 -15 20 -1 2 -5 -1 -9 -7z"/>
<path d="M1545 781 c-3 -5 0 -13 5 -16 8 -5 6 -13 -6 -26 -10 -11 -12 -19 -6
-19 7 0 12 5 12 11 0 5 4 8 9 5 8 -5 8 15 1 34 -1 3 -2 8 -1 13 1 10 -7 9 -14
-2z"/>
<path d="M2270 783 c0 -4 5 -15 10 -23 8 -13 10 -13 10 2 0 9 -4 20 -10 23 -5
3 -10 3 -10 -2z"/>
<path d="M1074 765 c10 -8 24 -11 29 -8 6 4 2 10 -9 14 -31 12 -40 9 -20 -6z"/>
<path d="M1304 761 c9 -10 14 -20 11 -23 -3 -3 2 -18 10 -34 l16 -29 -6 35
c-3 19 -7 40 -7 47 -1 6 -10 14 -21 17 -17 4 -18 3 -3 -13z"/>
<path d="M2045 760 c-3 -5 -2 -10 4 -10 5 0 13 5 16 10 3 6 2 10 -4 10 -5 0
-13 -4 -16 -10z"/>
<path d="M2510 760 c0 -5 5 -10 11 -10 5 0 7 5 4 10 -3 6 -8 10 -11 10 -2 0
-4 -4 -4 -10z"/>
<path d="M2536 754 c-8 -21 -8 -21 8 -21 8 0 11 8 8 19 -5 22 -8 23 -16 2z"/>
<path d="M1050 750 c0 -20 32 -74 87 -147 65 -86 221 -243 243 -243 12 0 12
-2 2 -9 -8 -5 -12 -20 -9 -37 l4 -29 7 32 c8 31 40 51 52 32 3 -5 10 -7 15 -3
5 3 6 10 3 16 -5 7 -1 9 9 5 11 -4 17 -1 17 8 0 8 5 15 11 15 6 0 31 18 56 40
47 41 65 49 61 28 -2 -7 4 -12 12 -10 12 3 13 1 2 -10 -11 -11 -14 -10 -21 1
-5 7 -14 10 -20 6 -8 -5 -9 -11 -2 -19 7 -9 7 -16 -2 -26 -6 -7 2 -4 18 6 57
34 58 35 35 59 -16 17 -18 25 -9 30 8 5 10 4 5 -3 -4 -7 -3 -12 2 -12 5 0 12
9 15 21 5 18 8 19 20 8 12 -11 12 -15 2 -17 -7 -2 -16 -10 -19 -18 -8 -22 22
-17 34 6 6 11 15 18 20 15 5 -3 11 -1 15 5 9 15 25 12 25 -6 0 -8 -4 -12 -10
-9 -5 3 -10 -1 -10 -9 0 -8 -8 -20 -17 -26 -13 -8 -14 -13 -5 -16 6 -3 9 -10
6 -16 -3 -5 8 -2 25 6 39 21 39 15 0 -34 -17 -21 -28 -43 -25 -48 3 -6 -1 -12
-9 -16 -8 -3 -15 -14 -15 -25 0 -11 -4 -23 -10 -26 -5 -3 -10 -15 -10 -26 0
-13 -4 -18 -12 -13 -8 5 -9 2 -5 -10 4 -10 2 -26 -3 -36 -7 -13 -7 -21 0 -25
11 -7 18 6 23 43 2 13 9 27 16 31 7 5 12 11 11 15 -5 17 37 107 79 169 58 86
82 127 75 127 -4 0 -1 6 5 13 6 8 8 16 5 20 -3 3 -1 14 5 25 8 15 8 21 0 24
-8 3 -6 10 5 21 10 9 14 17 9 17 -4 0 -1 6 8 13 8 7 19 21 23 32 6 17 4 17
-18 -4 -15 -14 -26 -20 -26 -14 0 21 -56 -16 -101 -65 -24 -27 -91 -88 -149
-137 -115 -97 -197 -143 -228 -126 -61 33 -312 328 -312 368 0 6 -4 15 -10 18
-5 3 -10 1 -10 -5z m802 -91 c-5 -19 -22 -29 -50 -29 -13 0 -20 -4 -17 -10 9
-14 42 -12 48 3 2 6 8 9 12 5 5 -5 0 -17 -10 -28 -14 -16 -21 -18 -28 -8 -6
10 -8 9 -4 -3 3 -9 -8 -30 -26 -49 -25 -26 -33 -30 -35 -18 -2 9 -10 19 -19
22 -14 6 -14 4 -2 -11 8 -9 9 -14 2 -10 -6 4 -18 1 -26 -8 -13 -13 -16 -13
-27 0 -10 13 -8 15 11 16 13 0 20 2 14 5 -18 7 117 141 139 138 12 -1 20 -7
18 -15z m-18 -98 c-11 -9 -18 -24 -16 -33 2 -10 -1 -18 -7 -18 -6 0 -11 -7
-11 -15 0 -8 -4 -15 -9 -15 -5 0 -11 -9 -14 -20 -3 -13 -11 -18 -20 -14 -8 3
-18 1 -22 -5 -8 -14 -25 -14 -25 0 0 5 5 7 10 4 6 -3 10 1 10 9 0 10 6 13 15
9 9 -3 15 -2 13 3 -6 22 15 54 35 55 12 0 16 3 10 6 -19 7 -16 21 7 28 11 3
20 13 20 21 0 9 5 12 12 8 8 -5 5 -12 -8 -23z"/>
<path d="M1761 593 c-12 -13 -12 -16 0 -24 9 -6 4 -7 -16 -3 -29 6 -29 6 -13
-11 14 -15 20 -16 32 -6 9 8 13 18 10 23 -4 6 -1 14 6 18 7 4 8 10 4 13 -5 3
-15 -2 -23 -10z"/>
<path d="M1600 750 c-13 -8 -12 -10 3 -10 9 0 17 5 17 10 0 12 -1 12 -20 0z"/>
<path d="M2254 738 c-4 -6 -3 -8 3 -5 5 3 15 -3 23 -13 8 -10 18 -17 22 -14 5
3 -1 14 -13 25 -26 22 -26 22 -35 7z"/>
<path d="M2370 740 c-9 -6 -10 -10 -3 -10 6 0 15 5 18 10 8 12 4 12 -15 0z"/>
<path d="M1145 730 c3 -5 8 -10 11 -10 2 0 4 5 4 10 0 6 -5 10 -11 10 -5 0 -7
-4 -4 -10z"/>
<path d="M1586 699 c-10 -53 -6 -66 9 -24 8 22 11 43 6 48 -5 5 -11 -6 -15
-24z"/>
<path d="M2067 712 c3 -7 -2 -19 -12 -26 -13 -9 -15 -15 -7 -20 7 -4 12 -2 12
5 0 21 21 -5 23 -28 0 -13 7 -19 17 -18 8 2 17 4 19 4 3 1 -4 8 -15 16 -15 11
-16 15 -4 15 8 1 4 6 -10 11 -20 8 -22 12 -10 19 9 6 18 5 23 -3 6 -8 7 -6 3
6 -3 10 -6 22 -6 27 0 5 -9 8 -19 7 -11 -1 -17 -6 -14 -15z"/>
<path d="M950 710 c0 -5 5 -10 11 -10 5 0 7 5 4 10 -3 6 -8 10 -11 10 -2 0 -4
-4 -4 -10z"/>
<path d="M2561 713 c-1 -6 -4 -20 -7 -30 -5 -17 -5 -17 6 0 6 10 9 23 6 30 -3
9 -5 9 -5 0z"/>
<path d="M2609 711 c8 -5 11 -15 8 -23 -3 -8 3 -20 13 -26 16 -10 19 -8 17 11
-2 25 -20 47 -39 47 -10 0 -10 -2 1 -9z"/>
<path d="M2697 701 c-4 -17 -3 -21 5 -13 5 5 8 16 6 23 -3 8 -7 3 -11 -10z"/>
<path d="M2227 704 c-4 -4 -7 -12 -7 -17 0 -6 3 -7 7 -4 3 4 12 2 20 -5 10 -8
17 -8 25 0 9 9 7 12 -9 12 -12 0 -23 5 -25 11 -2 5 -7 7 -11 3z"/>
<path d="M2521 692 c-1 -8 8 -25 19 -39 11 -14 20 -21 20 -15 0 6 -5 14 -11
17 -6 4 -14 17 -19 29 -5 11 -9 15 -9 8z"/>
<path d="M2735 690 c3 -5 8 -10 11 -10 2 0 4 5 4 10 0 6 -5 10 -11 10 -5 0 -7
-4 -4 -10z"/>
<path d="M651 674 c0 -11 3 -14 6 -6 3 7 2 16 -1 19 -3 4 -6 -2 -5 -13z"/>
<path d="M1265 680 c-3 -5 -1 -10 4 -10 6 0 11 5 11 10 0 6 -2 10 -4 10 -3 0
-8 -4 -11 -10z"/>
<path d="M1530 675 c0 -8 5 -15 10 -15 6 0 10 7 10 15 0 8 -4 15 -10 15 -5 0
-10 -7 -10 -15z"/>
<path d="M2152 677 c-8 -10 -5 -13 14 -15 14 -1 23 2 19 7 -3 5 1 12 7 14 7 3
3 6 -8 6 -12 1 -26 -5 -32 -12z"/>
<path d="M1290 670 c0 -5 5 -10 11 -10 5 0 7 5 4 10 -3 6 -8 10 -11 10 -2 0
-4 -4 -4 -10z"/>
<path d="M2481 659 c2 -13 0 -29 -4 -36 -4 -6 -2 -15 4 -19 7 -4 9 -3 5 4 -11
18 9 22 37 7 16 -8 29 -10 32 -4 4 5 -1 9 -10 9 -9 0 -14 3 -12 8 2 4 -9 18
-25 31 l-30 24 3 -24z m34 -28 c-6 -5 -25 10 -25 20 0 5 6 4 14 -3 8 -7 12
-15 11 -17z"/>
<path d="M487 663 c-4 -3 -7 -11 -7 -17 0 -6 5 -5 12 2 6 6 9 14 7 17 -3 3 -9
2 -12 -2z"/>
<path d="M2220 660 c8 -5 22 -9 30 -9 10 0 8 3 -5 9 -27 12 -43 12 -25 0z"/>
<path d="M2733 659 c-6 -6 -9 -19 -5 -28 5 -14 4 -14 -11 -2 -15 12 -17 12
-11 -4 6 -14 4 -16 -6 -10 -9 5 -11 4 -6 -3 4 -7 1 -12 -7 -12 -10 0 -14 -11
-13 -37 1 -22 -4 -37 -9 -36 -6 1 -12 -8 -12 -20 -1 -12 -7 -23 -13 -25 -5 -2
-8 -7 -5 -11 2 -5 0 -22 -5 -40 -5 -19 -5 -31 1 -31 5 0 9 9 9 20 0 11 9 36
19 57 29 56 44 96 42 111 -1 6 5 12 12 12 8 0 20 14 27 30 14 33 10 46 -7 29z"/>
<path d="M1992 649 c9 -5 16 -15 14 -22 -1 -6 -1 -9 1 -5 3 4 16 3 29 -3 32
-11 31 -12 31 4 0 9 -9 12 -26 9 -24 -5 -25 -4 -11 14 14 17 14 18 -2 6 -11
-9 -18 -10 -23 -2 -3 5 -12 10 -18 10 -7 0 -4 -5 5 -11z"/>
<path d="M2619 639 c-3 -52 -7 -69 -18 -83 -10 -12 -9 -15 8 -13 16 1 21 8 21
30 0 15 4 37 10 47 7 13 6 21 -5 30 -13 10 -15 8 -16 -11z"/>
<path d="M1530 646 c0 -2 7 -7 16 -10 8 -3 12 -2 9 4 -6 10 -25 14 -25 6z"/>
<path d="M2136 634 c-9 -22 -8 -24 9 -24 13 0 14 -4 5 -20 -7 -14 -7 -20 0
-20 5 0 10 -8 9 -17 0 -11 -3 -13 -6 -5 -2 6 -11 12 -19 12 -11 0 -10 -4 4
-18 13 -14 21 -16 32 -8 8 6 12 6 8 2 -4 -5 -3 -15 3 -22 9 -11 5 -16 -14 -23
-14 -5 -28 -15 -33 -22 -5 -8 -3 -9 7 -3 20 12 39 14 39 3 0 -5 -4 -9 -10 -9
-5 0 -10 -6 -10 -14 0 -8 -6 -17 -12 -20 -7 -2 -2 -4 12 -3 26 2 26 1 15 -63
-1 -8 4 -28 12 -43 7 -15 11 -32 8 -37 -3 -6 -1 -10 4 -10 6 0 11 -9 11 -21 0
-11 5 -17 10 -14 16 10 12 -7 -5 -19 -13 -9 -11 -11 9 -12 l24 -2 -19 54 c-11
29 -19 63 -19 74 0 11 -4 20 -8 20 -5 0 -9 13 -9 30 0 16 4 27 9 24 4 -3 8 0
8 5 0 6 -5 11 -11 11 -5 0 -7 5 -4 10 3 6 2 10 -3 10 -10 0 -4 48 8 65 8 12
-14 58 -23 48 -4 -3 -7 -3 -7 1 0 4 7 14 15 23 11 11 13 19 5 27 -5 7 -6 17
-2 22 4 4 0 3 -8 -3 -10 -7 -21 -8 -30 -3 -13 8 -12 10 0 14 8 2 22 7 30 9 8
3 3 6 -11 6 -16 1 -29 -6 -33 -15z m43 -50 c-15 -18 -22 -13 -13 10 3 9 10 13
16 10 5 -3 4 -12 -3 -20z"/>
<path d="M2213 624 c0 -8 3 -12 5 -9 3 3 11 0 19 -7 11 -8 12 -7 7 5 -7 21
-31 29 -31 11z"/>
<path d="M390 624 c0 -5 7 -18 15 -28 8 -11 15 -16 15 -10 0 5 -7 18 -15 28
-8 11 -15 16 -15 10z"/>
<path d="M1047 603 c9 -16 23 -36 31 -45 8 -9 11 -21 8 -27 -4 -5 3 -15 14
-21 12 -6 19 -18 16 -25 -3 -9 0 -12 9 -9 8 3 16 -3 20 -15 3 -12 10 -19 15
-16 4 3 10 -2 14 -10 3 -8 11 -15 17 -15 6 0 -6 19 -28 43 -21 23 -58 70 -81
105 -42 62 -68 87 -35 35z"/>
<path d="M1570 619 c0 -5 5 -7 10 -4 6 3 10 8 10 11 0 2 -4 4 -10 4 -5 0 -10
-5 -10 -11z"/>
<path d="M630 605 c0 -5 5 -17 10 -25 5 -8 10 -10 10 -5 0 6 -5 17 -10 25 -5
8 -10 11 -10 5z"/>
<path d="M2007 595 c-9 -8 -19 -15 -22 -15 -9 0 -44 -43 -45 -54 0 -5 -7 -17
-14 -25 -10 -11 -12 -21 -6 -31 8 -13 10 -12 10 2 0 9 5 20 12 24 7 5 8 3 3
-7 -5 -8 1 -5 13 5 26 22 28 30 7 22 -8 -3 -15 -2 -15 2 0 15 32 52 44 52 16
0 41 28 34 36 -3 3 -13 -2 -21 -11z"/>
<path d="M2500 600 c0 -5 5 -10 11 -10 5 0 7 -5 4 -10 -4 -6 -11 -8 -16 -5 -5
3 -6 -1 -3 -10 6 -14 8 -14 21 2 10 13 16 15 19 6 3 -7 11 -13 17 -13 6 0 0
11 -13 25 -25 26 -40 32 -40 15z"/>
<path d="M2858 603 c-10 -2 -18 -9 -18 -14 0 -18 -2 -24 -12 -36 -7 -9 -7 -13
0 -13 14 0 33 35 24 44 -3 4 1 4 11 0 12 -4 17 -1 17 10 0 9 -1 15 -2 15 -2
-1 -11 -3 -20 -6z"/>
<path d="M456 585 c-3 -8 -1 -15 4 -15 6 0 10 7 10 15 0 8 -2 15 -4 15 -2 0
-6 -7 -10 -15z"/>
<path d="M2082 584 c-7 -8 -8 -14 -3 -14 10 0 25 19 20 25 -2 1 -10 -3 -17
-11z"/>
<path d="M532 576 c7 -8 15 -12 17 -11 5 6 -10 25 -20 25 -5 0 -4 -6 3 -14z"/>
<path d="M2800 569 c-9 -15 -8 -24 1 -35 8 -9 8 -18 2 -26 -6 -7 -9 -21 -7
-31 3 -23 17 -39 14 -17 -4 28 0 51 8 46 5 -3 9 1 9 9 0 8 -5 15 -10 15 -5 0
-7 14 -5 30 5 35 3 37 -12 9z"/>
<path d="M2035 566 c-6 -13 -3 -23 9 -32 19 -13 13 -39 -6 -28 -7 5 -8 2 -4
-5 5 -7 14 -10 21 -7 7 2 17 0 22 -5 13 -13 37 35 29 58 -4 10 -10 13 -14 8
-14 -20 -40 -16 -45 7 -3 21 -4 22 -12 4z m65 -32 c0 -1 -3 -9 -6 -18 -8 -22
-24 -20 -24 2 0 10 7 19 15 19 8 0 15 -1 15 -3z"/>
<path d="M2215 570 c4 -6 11 -8 16 -5 14 9 11 15 -7 15 -8 0 -12 -5 -9 -10z"/>
<path d="M1984 549 c-3 -6 -1 -15 6 -19 8 -5 9 -13 4 -21 -6 -12 -5 -12 9 0
18 14 24 36 7 26 -5 -3 -10 -2 -10 4 0 5 6 12 13 14 7 3 6 6 -5 6 -9 1 -20 -4
-24 -10z"/>
<path d="M2489 527 c5 -12 7 -30 5 -40 -1 -9 2 -15 7 -11 5 3 9 0 9 -5 0 -6
-4 -11 -10 -11 -16 0 -12 -57 5 -64 13 -5 14 -2 5 15 -8 15 -8 24 0 34 8 9 9
26 4 47 -4 18 -7 36 -6 40 1 3 -5 9 -13 12 -11 4 -12 0 -6 -17z"/>
<path d="M2867 533 c-4 -3 -7 -11 -7 -17 0 -6 5 -5 12 2 6 6 9 14 7 17 -3 3
-9 2 -12 -2z"/>
<path d="M2598 485 c-3 -76 -15 -186 -24 -216 -2 -9 3 -22 11 -29 13 -11 14
-10 9 4 -3 9 -1 23 6 31 8 9 8 15 2 15 -6 0 -9 8 -7 18 1 9 8 16 16 14 10 -3
10 0 0 12 -7 8 -10 19 -7 24 12 20 19 172 7 172 -6 0 -12 -19 -13 -45z"/>
<path d="M2775 520 c-3 -5 -1 -10 4 -10 6 0 11 5 11 10 0 6 -2 10 -4 10 -3 0
-8 -4 -11 -10z"/>
<path d="M470 505 c0 -8 2 -15 4 -15 2 0 6 7 10 15 3 8 1 15 -4 15 -6 0 -10
-7 -10 -15z"/>
<path d="M550 510 c0 -6 7 -10 15 -10 8 0 15 2 15 4 0 2 -7 6 -15 10 -8 3 -15
1 -15 -4z"/>
<path d="M2114 498 c-10 -13 -12 -17 -4 -11 8 6 18 12 23 12 8 1 11 11 4 17
-2 2 -12 -6 -23 -18z"/>
<path d="M2890 510 c0 -5 5 -10 10 -10 6 0 10 5 10 10 0 6 -4 10 -10 10 -5 0
-10 -4 -10 -10z"/>
<path d="M867 493 c-10 -9 -9 -41 2 -47 4 -3 8 8 7 24 -1 17 -1 30 -2 30 0 0
-4 -3 -7 -7z"/>
<path d="M1184 477 c22 -19 27 -31 23 -48 -5 -17 2 -30 29 -54 39 -36 42 -45
14 -45 -14 0 -20 7 -21 23 0 15 -2 17 -6 7 -3 -8 -11 -18 -17 -22 -7 -5 -4 -8
7 -8 10 0 20 -7 23 -15 4 -8 10 -12 15 -9 5 3 9 -5 9 -16 0 -12 9 -33 19 -46
16 -20 20 -21 25 -8 8 21 8 26 -3 20 -4 -3 -8 8 -7 25 1 21 5 29 16 26 9 -2
14 -12 12 -27 -1 -19 0 -21 7 -11 8 12 13 13 28 2 10 -7 -20 23 -67 68 -60 58
-77 79 -57 72 17 -7 27 -7 27 -1 0 6 -6 10 -14 10 -9 0 -12 7 -9 20 3 12 0 20
-7 20 -6 0 -26 9 -43 21 l-32 21 29 -25z m104 -177 c0 -16 -4 -32 -9 -35 -5
-4 -9 10 -9 29 0 43 17 49 18 6z"/>
<path d="M1998 481 c-9 -15 -15 -17 -25 -9 -10 8 -13 6 -13 -8 0 -16 -2 -17
-11 -4 -9 13 -10 13 -6 0 2 -8 9 -16 15 -16 26 -3 26 -5 2 -19 -29 -16 -19
-20 11 -4 11 5 17 14 14 19 -3 5 1 12 8 17 13 8 31 43 22 43 -3 0 -10 -9 -17
-19z"/>
<path d="M2846 472 c-3 -9 -9 -24 -12 -32 -5 -12 -4 -13 7 -3 10 10 16 10 28
0 14 -10 14 -10 3 5 -8 9 -11 22 -8 27 4 5 2 12 -3 15 -5 3 -11 -2 -15 -12z"/>
<path d="M565 470 c-3 -5 -1 -10 4 -10 6 0 11 5 11 10 0 6 -2 10 -4 10 -3 0
-8 -4 -11 -10z"/>
<path d="M2044 464 c3 -9 6 -18 6 -20 0 -3 6 -2 13 1 6 4 4 0 -6 -8 -15 -13
-16 -15 -2 -21 20 -7 31 19 16 38 -6 7 -8 16 -4 19 3 4 -2 7 -11 7 -12 0 -16
-5 -12 -16z"/>
<path d="M1060 456 c0 -9 4 -16 10 -16 5 0 7 -7 3 -16 -3 -9 -1 -19 5 -23 7
-4 14 -24 17 -46 4 -36 35 -86 35 -57 0 6 7 9 15 6 8 -4 15 -2 15 4 0 5 -9 12
-20 15 -11 3 -20 0 -20 -6 0 -6 -3 -7 -6 -4 -4 4 -1 14 6 22 10 13 15 13 21 3
4 -7 10 -10 13 -7 3 2 1 11 -4 19 -7 11 -11 11 -23 1 -10 -7 -18 -8 -21 -2 -4
5 3 12 14 16 16 5 18 9 8 19 -7 7 -22 15 -33 20 -12 4 -15 10 -8 14 8 5 5 14
-8 31 -14 17 -19 19 -19 7z"/>
<path d="M1897 463 c-11 -10 -8 -35 3 -28 6 3 10 1 10 -5 0 -6 5 -8 10 -5 14
9 12 25 -2 23 -7 -2 -12 3 -10 10 2 13 -1 15 -11 5z"/>
<path d="M2947 459 c7 -7 15 -10 18 -7 3 3 -2 9 -12 12 -14 6 -15 5 -6 -5z"/>
<path d="M662 440 c7 -11 17 -20 22 -20 5 0 1 9 -9 20 -10 11 -20 20 -22 20
-2 0 2 -9 9 -20z"/>
<path d="M2015 450 c-3 -5 1 -10 10 -10 9 0 13 5 10 10 -3 6 -8 10 -10 10 -2
0 -7 -4 -10 -10z"/>
<path d="M2105 450 c3 -5 1 -10 -5 -10 -6 0 -4 -10 6 -25 15 -23 15 -25 0 -31
-12 -4 -13 -11 -6 -24 12 -22 41 -35 33 -14 -3 7 -9 14 -14 14 -5 0 -9 5 -9
11 0 6 6 9 14 6 9 -4 12 2 10 21 -1 15 -7 28 -13 30 -5 2 -7 10 -4 18 3 8 0
14 -7 14 -6 0 -8 -4 -5 -10z"/>
<path d="M2765 430 c-10 -19 -20 -28 -28 -23 -8 4 -7 1 1 -10 8 -9 11 -20 8
-25 -3 -5 1 -9 8 -9 8 0 12 7 8 15 -3 9 -1 13 5 9 7 -5 9 1 5 15 -4 18 -2 20
14 14 15 -5 16 -4 7 5 -6 6 -9 18 -6 25 10 26 -6 14 -22 -16z"/>
<path d="M414 438 c-4 -7 -4 -10 1 -6 4 4 15 2 24 -5 14 -11 14 -10 2 6 -16
20 -18 21 -27 5z"/>
<path d="M500 439 c0 -5 5 -7 10 -4 6 3 10 8 10 11 0 2 -4 4 -10 4 -5 0 -10
-5 -10 -11z"/>
<path d="M2975 440 c-3 -5 -1 -10 4 -10 6 0 11 5 11 10 0 6 -2 10 -4 10 -3 0
-8 -4 -11 -10z"/>
<path d="M2228 433 c7 -3 16 -2 19 1 4 3 -2 6 -13 5 -11 0 -14 -3 -6 -6z"/>
<path d="M331 423 c-1 -17 16 -25 25 -12 4 7 3 9 -4 5 -5 -3 -13 0 -15 6 -4 9
-6 10 -6 1z"/>
<path d="M867 415 c3 -8 9 -12 14 -9 12 7 11 11 -5 17 -10 4 -13 1 -9 -8z"/>
<path d="M2015 420 c-4 -6 -10 -8 -15 -5 -5 3 -15 -1 -23 -9 -8 -8 -17 -12
-21 -9 -3 4 -6 2 -6 -4 0 -6 7 -13 15 -17 8 -3 14 -2 14 2 -3 19 2 25 11 12 6
-10 10 -11 10 -2 0 6 12 13 28 13 17 1 20 3 9 6 -9 2 -15 9 -12 14 4 5 4 9 1
9 -3 0 -8 -5 -11 -10z"/>
<path d="M2890 419 c0 -5 5 -7 10 -4 6 3 10 8 10 11 0 2 -4 4 -10 4 -5 0 -10
-5 -10 -11z"/>
<path d="M1669 404 c-6 -8 -14 -12 -17 -9 -10 10 -32 -18 -32 -42 0 -13 -4
-21 -10 -18 -6 3 -7 -1 -4 -9 3 -9 1 -16 -5 -16 -5 0 -19 -10 -31 -22 -12 -13
-20 -17 -20 -9 0 8 -6 11 -16 7 -10 -4 -13 -2 -8 6 5 8 2 9 -9 5 -11 -4 -17
-1 -17 9 0 8 -5 12 -10 9 -6 -4 -8 -11 -5 -16 4 -5 1 -9 -4 -9 -6 0 -11 -6
-11 -14 0 -8 -14 -17 -31 -21 -16 -4 -29 -11 -27 -17 2 -5 6 -8 9 -6 3 2 14
-4 25 -12 18 -14 18 -14 5 3 -18 23 -7 34 16 16 11 -9 14 -10 9 -1 -4 6 -3 12
3 12 6 0 8 6 5 13 -2 7 4 13 16 14 12 1 20 -5 21 -15 0 -11 3 -12 6 -4 2 6 9
12 14 12 4 0 6 -6 3 -14 -3 -8 -1 -17 5 -21 7 -3 8 0 5 9 -3 9 -1 16 5 16 6 0
11 -4 11 -10 0 -5 5 -10 12 -10 6 0 20 -8 31 -18 19 -16 20 -16 8 6 -6 12 -8
22 -4 22 4 0 16 12 26 25 14 19 15 25 4 25 -8 0 -19 -11 -25 -25 -17 -36 -33
-32 -21 5 6 16 14 29 17 28 20 -5 49 16 61 44 8 18 18 35 22 38 4 3 1 10 -6
17 -10 10 -16 9 -26 -3z m11 -24 c0 -11 -7 -20 -15 -20 -9 0 -15 -7 -13 -16 2
-9 -4 -18 -14 -19 -13 -3 -15 2 -7 28 5 18 9 34 9 36 0 2 7 -2 15 -9 12 -10
15 -10 15 4 0 9 2 16 5 16 3 0 5 -9 5 -20z m-90 -110 c0 -5 -4 -10 -10 -10 -5
0 -10 5 -10 10 0 6 5 10 10 10 6 0 10 -4 10 -10z"/>
<path d="M1873 406 c0 -8 6 -12 14 -9 7 3 10 9 7 14 -8 14 -21 11 -21 -5z"/>
<path d="M2226 407 c3 -10 9 -15 12 -12 3 3 0 11 -7 18 -10 9 -11 8 -5 -6z"/>
<path d="M2820 410 c-12 -8 -12 -10 -1 -10 9 0 4 -10 -13 -26 -19 -20 -26 -37
-26 -65 0 -21 4 -40 10 -44 5 -3 7 -12 3 -20 -3 -8 0 -15 7 -15 6 0 8 -5 4
-12 -6 -10 -4 -10 7 -2 20 16 79 28 79 16 0 -13 -30 -26 -52 -23 -10 1 -18 -3
-18 -8 0 -17 36 -13 60 7 19 16 21 22 11 40 -10 18 -9 22 4 22 20 0 19 16 -1
24 -8 3 -12 11 -8 17 4 8 3 9 -5 5 -9 -6 -9 -11 0 -22 11 -13 5 -19 -15 -15
-5 1 -4 -4 3 -12 9 -12 8 -16 -5 -21 -29 -11 -61 -7 -61 9 0 9 9 15 23 15 12
0 25 7 28 16 5 14 4 15 -8 5 -11 -9 -15 -9 -19 1 -4 10 -6 10 -6 1 -2 -27 -26
-11 -28 17 -2 30 25 70 47 70 12 0 13 10 2 27 -5 8 -13 9 -22 3z"/>
<path d="M1802 354 c-19 -53 -19 -55 -1 -49 12 4 19 1 20 -7 0 -7 5 -2 11 12
l10 25 11 -22 c5 -13 14 -23 20 -23 5 0 7 -7 4 -15 -5 -12 -2 -12 18 -3 13 6
22 15 19 20 -3 4 -9 6 -13 3 -5 -2 -16 2 -27 9 -15 12 -16 16 -5 30 12 14 11
16 -5 16 -11 0 -25 9 -31 20 -11 17 -10 18 5 13 9 -3 22 -9 27 -12 19 -11 32
-9 32 5 0 10 -4 11 -10 5 -7 -7 -19 -4 -37 9 l-27 19 -21 -55z m31 -19 c-3 -8
-13 -15 -22 -15 -14 0 -14 2 -1 10 8 5 11 10 7 10 -5 0 -5 5 -2 10 9 15 25 2
18 -15z"/>
<path d="M2161 394 c0 -11 3 -14 6 -6 3 7 2 16 -1 19 -3 4 -6 -2 -5 -13z"/>
<path d="M1918 393 c7 -3 16 -2 19 1 4 3 -2 6 -13 5 -11 0 -14 -3 -6 -6z"/>
<path d="M371 369 c-13 -11 -22 -22 -19 -24 3 -3 11 1 17 9 7 8 18 13 26 10 7
-3 16 -1 20 5 4 7 0 8 -11 4 -12 -4 -15 -3 -10 5 10 17 5 15 -23 -9z"/>
<path d="M871 374 c0 -11 3 -14 6 -6 3 7 2 16 -1 19 -3 4 -6 -2 -5 -13z"/>
<path d="M2010 386 c0 -9 30 -14 35 -6 4 6 -3 10 -14 10 -12 0 -21 -2 -21 -4z"/>
<path d="M2063 360 c0 -16 4 -27 9 -24 4 3 8 14 8 24 0 10 -4 21 -8 24 -5 3
-9 -8 -9 -24z"/>
<path d="M2487 384 c-5 -5 1 -65 8 -72 1 -2 5 13 7 33 4 34 -2 51 -15 39z"/>
<path d="M2909 373 c-12 -16 -12 -17 2 -6 9 7 19 10 22 6 4 -3 7 -1 7 5 0 17
-16 15 -31 -5z"/>
<path d="M229 344 c-5 -15 -8 -29 -5 -31 2 -2 8 10 14 26 13 38 5 41 -9 5z"/>
<path d="M425 360 c-3 -5 -1 -10 4 -10 6 0 11 5 11 10 0 6 -2 10 -4 10 -3 0
-8 -4 -11 -10z"/>
<path d="M1173 348 c-2 -16 1 -18 10 -9 7 7 8 14 1 21 -6 6 -10 2 -11 -12z"/>
<path d="M1295 360 c4 -6 11 -8 16 -5 14 9 11 15 -7 15 -8 0 -12 -5 -9 -10z"/>
<path d="M1555 360 c-3 -6 1 -7 9 -4 18 7 21 14 7 14 -6 0 -13 -4 -16 -10z"/>
<path d="M1957 358 c20 -12 21 -14 4 -34 -17 -21 -18 -21 -29 -3 -10 16 -9 19
5 19 17 1 17 1 1 11 -13 7 -23 5 -38 -8 -11 -10 -20 -22 -20 -28 0 -5 4 -4 9
4 13 20 41 6 41 -21 l1 -23 18 23 c11 12 23 22 28 22 5 0 9 9 10 20 1 11 -2
20 -7 20 -5 0 -17 3 -27 6 -13 4 -12 2 4 -8z"/>
<path d="M2979 330 c-14 -31 -21 -38 -38 -33 -12 3 -21 1 -21 -6 0 -5 8 -8 18
-5 11 4 8 -1 -8 -14 -14 -12 -22 -24 -18 -28 10 -9 76 65 84 94 10 38 0 33
-17 -8z"/>
<path d="M468 353 c7 -3 16 -2 19 1 4 3 -2 6 -13 5 -11 0 -14 -3 -6 -6z"/>
<path d="M2865 350 c-3 -6 1 -7 9 -4 18 7 21 14 7 14 -6 0 -13 -4 -16 -10z"/>
<path d="M2010 336 c0 -8 -9 -21 -20 -29 -11 -8 -17 -17 -13 -20 3 -4 1 -7 -5
-7 -7 0 -12 -4 -12 -10 0 -17 20 -11 27 8 9 23 29 42 37 35 3 -4 6 -1 6 6 0 7
5 9 13 5 8 -5 8 -2 -2 9 -17 21 -31 22 -31 3z"/>
<path d="M2820 334 c0 -9 -5 -12 -12 -8 -7 4 -8 3 -4 -4 9 -15 9 -15 29 8 14
17 14 20 2 20 -8 0 -15 -7 -15 -16z"/>
<path d="M383 333 c-15 -5 -17 -23 -4 -23 5 0 11 7 15 15 3 8 4 15 3 14 -1 0
-8 -3 -14 -6z"/>
<path d="M1345 330 c3 -5 8 -10 11 -10 2 0 4 5 4 10 0 6 -5 10 -11 10 -5 0 -7
-4 -4 -10z"/>
<path d="M1410 330 c-9 -6 -7 -10 9 -15 27 -8 33 -4 16 12 -6 6 -18 7 -25 3z"/>
<path d="M2095 330 c-3 -5 1 -10 10 -10 9 0 13 5 10 10 -3 6 -8 10 -10 10 -2
0 -7 -4 -10 -10z"/>
<path d="M2900 331 c0 -5 5 -13 10 -16 6 -3 10 -2 10 4 0 5 -4 13 -10 16 -5 3
-10 2 -10 -4z"/>
<path d="M2247 295 c-9 -19 -13 -35 -8 -35 10 0 36 58 29 65 -2 3 -12 -11 -21
-30z"/>
<path d="M2055 306 c-11 -8 -14 -15 -8 -19 6 -4 16 0 23 8 17 21 8 28 -15 11z"/>
<path d="M2090 290 c-14 -26 -12 -34 3 -21 10 8 17 7 25 -1 19 -19 14 -30 -8
-18 -11 6 -20 8 -20 4 0 -3 -7 -1 -15 6 -19 16 -19 3 0 -30 11 -19 14 -21 15
-7 0 19 15 23 25 6 5 -6 12 -4 21 8 17 22 18 34 2 31 -6 -2 -13 6 -15 17 -3
17 -2 18 7 5 9 -12 11 -12 8 -1 -6 21 -37 22 -48 1z"/>
<path d="M1200 292 c0 -4 9 -15 20 -25 24 -20 27 -6 4 17 -17 18 -24 20 -24 8z"/>
<path d="M1390 289 c0 -5 5 -7 10 -4 6 3 10 8 10 11 0 2 -4 4 -10 4 -5 0 -10
-5 -10 -11z"/>
<path d="M2488 288 c-2 -7 -1 -31 2 -53 l6 -40 5 38 c3 20 2 37 -3 37 -4 0 -5
7 -2 15 4 8 4 15 1 15 -3 0 -7 -6 -9 -12z"/>
<path d="M1150 280 c-8 -5 -10 -10 -4 -10 7 0 11 -7 10 -16 0 -9 5 -19 13 -22
10 -3 11 0 5 9 -5 8 -7 22 -6 32 4 20 2 20 -18 7z"/>
<path d="M1773 238 c1 -28 4 -43 9 -35 4 6 8 8 8 2 0 -10 40 51 40 61 0 12
-22 -10 -29 -29 -7 -17 -9 -18 -14 -4 -3 9 0 23 8 31 20 19 19 25 -4 23 -15
-1 -18 -9 -18 -49z"/>
<path d="M2015 280 c3 -5 8 -10 11 -10 2 0 4 5 4 10 0 6 -5 10 -11 10 -5 0 -7
-4 -4 -10z"/>
<path d="M2950 239 c-54 -63 -65 -74 -92 -94 -12 -8 -19 -17 -16 -20 8 -8 39
6 33 15 -3 4 2 11 11 14 13 5 15 2 11 -14 -6 -25 -2 -25 25 0 15 14 18 23 10
32 -7 10 -5 19 9 37 11 13 22 21 26 18 3 -4 0 -15 -8 -24 -13 -16 -12 -17 4
-4 9 7 16 19 15 25 -1 6 4 22 11 34 23 42 6 33 -39 -19z m-20 -73 c0 -11 -19
-15 -25 -6 -3 5 1 10 9 10 9 0 16 -2 16 -4z"/>
<path d="M867 269 c7 -7 15 -10 18 -7 3 3 -2 9 -12 12 -14 6 -15 5 -6 -5z"/>
<path d="M1993 253 c-5 -12 -21 -12 -40 0 -6 4 -14 3 -18 -3 -3 -5 1 -11 9
-11 9 -1 22 -2 29 -3 13 -1 17 -49 5 -69 -6 -9 -8 -9 -8 1 0 6 -4 12 -10 12
-5 0 -10 -6 -10 -14 0 -8 8 -13 18 -11 9 2 21 4 25 4 5 1 6 5 3 10 -3 5 1 12
10 15 13 5 14 9 4 21 -10 12 -10 15 1 16 8 0 5 4 -6 9 -18 7 -19 8 -2 15 20 8
50 -12 40 -28 -3 -5 -1 -7 5 -3 5 3 13 0 15 -6 4 -9 6 -9 6 -1 1 6 -6 19 -15
27 -8 9 -13 19 -11 23 3 5 -6 8 -20 8 -14 0 -28 -5 -30 -12z"/>
<path d="M2764 261 c5 -7 0 -21 -11 -33 -16 -19 -16 -21 -1 -15 12 4 15 2 11
-8 -3 -8 -8 -13 -13 -10 -4 2 -12 -7 -19 -21 -15 -34 -13 -43 4 -20 8 11 15
16 15 10 0 -5 7 4 15 20 18 34 19 72 3 82 -7 5 -8 3 -4 -5z"/>
<path d="M1850 249 c0 -14 20 -20 36 -11 14 8 12 10 -10 14 -14 3 -26 2 -26
-3z"/>
<path d="M395 240 c-3 -5 -1 -10 4 -10 6 0 11 5 11 10 0 6 -2 10 -4 10 -3 0
-8 -4 -11 -10z"/>
<path d="M1326 241 c-3 -5 4 -11 15 -14 11 -3 23 -15 26 -26 5 -20 23 -30 23
-13 0 16 45 5 48 -11 4 -18 14 -22 25 -11 11 12 -32 42 -69 48 -19 4 -38 14
-41 22 -6 16 -19 18 -27 5z"/>
<path d="M1506 223 c-6 -14 -5 -15 5 -6 7 7 10 15 7 18 -3 3 -9 -2 -12 -12z"/>
<path d="M2550 229 c0 -5 5 -7 10 -4 6 3 10 8 10 11 0 2 -4 4 -10 4 -5 0 -10
-5 -10 -11z"/>
<path d="M586 217 c3 -10 9 -15 12 -12 3 3 0 11 -7 18 -10 9 -11 8 -5 -6z"/>
<path d="M1822 210 c-15 -25 -54 -42 -63 -28 -3 5 -9 0 -12 -11 -3 -12 -1 -19
3 -16 18 11 21 -17 4 -36 -18 -20 -6 -27 13 -8 7 7 11 3 11 -15 0 -15 -4 -29
-9 -32 -16 -9 -10 -21 10 -19 32 2 53 26 46 53 -3 13 -2 21 3 18 12 -7 38 11
29 21 -5 4 -12 1 -17 -7 -6 -8 -10 -10 -10 -5 0 6 5 16 10 21 7 7 6 11 -4 11
-8 0 -14 -5 -13 -11 3 -18 -40 -18 -47 0 -10 25 2 30 20 8 8 -10 13 -14 10 -7
-8 14 3 43 16 43 5 0 6 -5 2 -12 -4 -6 -3 -8 3 -5 12 7 24 57 14 57 -3 0 -12
-9 -19 -20z m-10 -118 c-6 -2 -9 -9 -6 -17 3 -7 1 -16 -4 -19 -5 -3 -12 5 -14
19 -3 14 -1 25 4 25 5 0 6 6 2 13 -5 7 -1 6 10 -3 10 -8 13 -16 8 -18z"/>
<path d="M1895 220 c-4 -6 -12 -7 -18 -3 -7 4 -6 0 2 -10 7 -9 21 -17 30 -16
12 0 12 2 -4 8 -19 8 -19 8 0 19 11 6 15 12 8 12 -6 0 -15 -5 -18 -10z"/>
<path d="M397 200 c-9 -11 -13 -20 -7 -20 5 0 14 9 20 20 6 11 9 20 8 20 -2 0
-11 -9 -21 -20z"/>
<path d="M1320 210 c8 -5 20 -10 25 -10 6 0 3 5 -5 10 -8 5 -19 10 -25 10 -5
0 -3 -5 5 -10z"/>
<path d="M1577 213 c-10 -10 -8 -25 2 -18 5 3 17 -5 25 -17 18 -25 21 -42 6
-33 -5 3 -10 -1 -10 -10 0 -11 -5 -15 -16 -11 -9 3 -12 2 -9 -5 4 -5 1 -16 -5
-24 -9 -11 -9 -15 -1 -15 6 0 11 4 11 10 0 5 7 7 15 4 18 -7 50 22 35 31 -6 4
-8 11 -4 16 3 5 -2 22 -12 37 -10 15 -17 30 -16 35 3 9 -12 9 -21 0z m43 -92
c0 -5 -7 -12 -16 -15 -14 -5 -15 -4 -4 9 14 17 20 19 20 6z"/>
<path d="M2560 205 c-6 -8 -10 -22 -7 -32 4 -14 5 -14 6 4 0 12 9 27 19 32 9
6 12 11 6 11 -6 0 -17 -7 -24 -15z"/>
<path d="M495 200 c3 -5 11 -10 16 -10 6 0 7 5 4 10 -3 6 -11 10 -16 10 -6 0
-7 -4 -4 -10z"/>
<path d="M2107 203 c-4 -3 -7 -16 -7 -27 -1 -19 -2 -19 -11 -4 -12 21 -40 13
-32 -9 5 -12 7 -12 14 -1 7 10 9 10 9 -3 0 -12 7 -15 25 -11 14 2 33 -2 43 -9
15 -13 16 -12 3 4 -7 9 -19 17 -26 17 -7 0 -11 10 -10 25 3 27 2 29 -8 18z"/>
<path d="M2144 195 c-3 -8 1 -22 10 -30 14 -15 16 -15 16 -1 0 9 -5 16 -11 16
-6 0 -9 7 -5 15 3 8 3 15 0 15 -2 0 -7 -7 -10 -15z"/>
<path d="M1861 179 c0 -13 5 -33 10 -44 6 -15 7 -9 4 19 -6 45 -15 62 -14 25z"/>
<path d="M2795 190 c3 -5 8 -10 11 -10 2 0 4 5 4 10 0 6 -5 10 -11 10 -5 0 -7
-4 -4 -10z"/>
<path d="M2 170 c0 -14 2 -19 5 -12 2 6 2 18 0 25 -3 6 -5 1 -5 -13z"/>
<path d="M1166 177 c3 -10 9 -15 12 -12 3 3 0 11 -7 18 -10 9 -11 8 -5 -6z"/>
<path d="M2230 180 c0 -5 5 -10 10 -10 6 0 10 5 10 10 0 6 -4 10 -10 10 -5 0
-10 -4 -10 -10z"/>
<path d="M1216 167 c3 -10 9 -15 12 -12 3 3 0 11 -7 18 -10 9 -11 8 -5 -6z"/>
<path d="M1396 164 c-10 -25 1 -29 14 -5 6 12 7 21 1 21 -5 0 -12 -7 -15 -16z"/>
<path d="M1488 175 c-11 -12 11 -49 37 -62 14 -6 23 -7 20 -3 -3 5 1 11 7 13
7 3 0 6 -15 6 -19 1 -26 5 -21 13 4 6 3 8 -4 4 -6 -3 -12 3 -14 15 -2 11 -6
18 -10 14z"/>
<path d="M1520 165 c13 -16 60 -17 60 -2 0 9 -12 13 -34 13 -22 -1 -31 -5 -26
-11z"/>
<path d="M1910 166 c0 -8 4 -17 8 -20 4 -2 8 4 8 15 0 10 -4 19 -8 19 -4 0 -8
-6 -8 -14z"/>
<path d="M1350 163 c0 -15 18 -35 23 -27 3 5 -1 15 -9 22 -8 7 -14 9 -14 5z"/>
<path d="M2016 162 c-2 -4 0 -14 6 -22 8 -12 9 -12 5 2 -3 9 -1 19 6 22 9 3 9
5 0 5 -6 1 -14 -3 -17 -7z"/>
<path d="M2776 154 c-3 -8 -10 -12 -16 -9 -6 3 -13 -1 -16 -10 -4 -9 -13 -14
-20 -11 -8 3 -14 1 -14 -4 0 -14 18 -21 25 -10 4 6 10 8 15 5 5 -3 17 5 27 18
10 13 26 23 36 21 9 -1 17 2 17 7 0 16 -48 10 -54 -7z"/>
<path d="M2233 133 c-8 -16 -9 -32 -3 -43 6 -11 5 -21 -2 -28 -9 -9 -9 -14 0
-22 6 -6 10 -7 7 -4 -2 4 0 14 5 23 5 10 5 23 0 31 -5 8 -4 22 1 33 6 10 9 22
7 27 -2 5 -8 -2 -15 -17z"/>
<path d="M1280 140 c0 -5 4 -10 9 -10 6 0 13 5 16 10 3 6 -1 10 -9 10 -9 0
-16 -4 -16 -10z"/>
<path d="M1984 136 c-3 -9 -11 -13 -17 -9 -6 3 -7 1 -3 -5 4 -7 2 -12 -3 -12
-6 0 -11 -10 -10 -22 0 -15 2 -18 6 -8 3 8 15 25 26 37 11 13 18 26 14 29 -4
4 -9 -1 -13 -10z"/>
<path d="M766 127 c3 -10 9 -15 12 -12 3 3 0 11 -7 18 -10 9 -11 8 -5 -6z"/>
<path d="M2057 126 c-10 -25 -9 -26 10 -19 12 5 14 3 8 -8 -5 -8 -4 -11 0 -6
12 10 16 39 5 32 -5 -3 -10 0 -12 7 -3 7 -7 5 -11 -6z"/>
<path d="M2100 135 c0 -5 5 -17 10 -25 5 -8 10 -10 10 -5 0 6 -5 17 -10 25 -5
8 -10 11 -10 5z"/>
<path d="M370 122 c0 -5 7 -9 15 -9 8 0 12 4 9 9 -7 10 -24 10 -24 0z"/>
<path d="M811 114 c0 -11 3 -14 6 -6 3 7 2 16 -1 19 -3 4 -6 -2 -5 -13z"/>
<path d="M1320 120 c8 -5 20 -10 25 -10 6 0 3 5 -5 10 -8 5 -19 10 -25 10 -5
0 -3 -5 5 -10z"/>
<path d="M1200 110 c0 -5 5 -10 11 -10 5 0 7 5 4 10 -3 6 -8 10 -11 10 -2 0
-4 -4 -4 -10z"/>
<path d="M1395 110 c3 -5 11 -10 16 -10 6 0 7 5 4 10 -3 6 -11 10 -16 10 -6 0
-7 -4 -4 -10z"/>
<path d="M2 90 c0 -14 2 -19 5 -12 2 6 2 18 0 25 -3 6 -5 1 -5 -13z"/>
<path d="M955 100 c-3 -5 -1 -10 4 -10 6 0 11 5 11 10 0 6 -2 10 -4 10 -3 0
-8 -4 -11 -10z"/>
<path d="M1480 99 c0 -5 5 -7 10 -4 6 3 10 8 10 11 0 2 -4 4 -10 4 -5 0 -10
-5 -10 -11z"/>
<path d="M1509 84 c-12 -34 -4 -43 19 -19 9 10 11 14 3 10 -10 -6 -12 -2 -6
14 9 30 -4 26 -16 -5z"/>
<path d="M1984 95 c-18 -14 -18 -14 4 -8 12 3 22 9 22 14 0 12 -3 11 -26 -6z"/>
<path d="M2825 100 c3 -5 0 -10 -7 -10 -10 0 -10 -2 1 -9 11 -7 7 -10 -15 -14
l-29 -4 28 -2 c15 0 27 -5 27 -11 0 -5 4 -10 9 -10 4 0 6 11 3 25 -2 14 0 25
7 25 5 0 8 -6 5 -14 -3 -8 -1 -16 4 -20 12 -7 12 26 -1 42 -11 14 -41 17 -32
2z"/>
<path d="M2955 100 c-3 -5 -1 -10 4 -10 6 0 11 5 11 10 0 6 -2 10 -4 10 -3 0
-8 -4 -11 -10z"/>
<path d="M2704 84 c3 -9 1 -12 -4 -9 -6 3 -10 -3 -10 -14 0 -21 0 -21 25 1 30
26 31 33 4 35 -15 1 -19 -3 -15 -13z"/>
<path d="M1455 80 c-3 -5 -3 -10 2 -10 4 0 1 -5 -7 -10 -11 -8 -9 -9 13 -8 31
3 32 4 13 24 -9 9 -17 10 -21 4z"/>
<path d="M1743 69 c-2 -23 3 -25 10 -4 4 8 3 16 -1 19 -4 3 -9 -4 -9 -15z"/>
<path d="M2106 82 c-3 -6 -1 -14 5 -17 14 -9 20 -2 10 14 -6 8 -11 9 -15 3z"/>
<path d="M2985 80 c3 -5 8 -10 11 -10 2 0 4 5 4 10 0 6 -5 10 -11 10 -5 0 -7
-4 -4 -10z"/>
<path d="M770 69 c0 -5 5 -7 10 -4 6 3 10 8 10 11 0 2 -4 4 -10 4 -5 0 -10 -5
-10 -11z"/>
<path d="M1180 71 c0 -6 4 -12 8 -15 5 -3 9 1 9 9 0 8 -4 15 -9 15 -4 0 -8 -4
-8 -9z"/>
<path d="M1600 63 c0 -12 -3 -14 -8 -6 -5 8 -13 9 -22 3 -10 -7 -11 -10 -2
-10 6 0 12 -5 12 -11 0 -5 -4 -7 -10 -4 -5 3 -10 -3 -10 -14 0 -19 3 -17 30
10 16 18 27 35 24 40 -8 14 -14 11 -14 -8z"/>
<path d="M2920 59 c-11 -19 -10 -20 10 -9 11 6 18 15 15 21 -9 13 -13 11 -25
-12z"/>
<path d="M942 56 c7 -8 15 -12 17 -11 5 6 -10 25 -20 25 -5 0 -4 -6 3 -14z"/>
<path d="M1920 59 c0 -5 5 -7 10 -4 6 3 10 1 10 -4 0 -6 5 -11 11 -11 8 0 8 5
-1 15 -14 17 -30 20 -30 4z"/>
<path d="M817 49 c7 -7 15 -10 18 -7 3 3 -2 9 -12 12 -14 6 -15 5 -6 -5z"/>
<path d="M405 40 c-3 -5 -1 -10 4 -10 6 0 11 5 11 10 0 6 -2 10 -4 10 -3 0 -8
-4 -11 -10z"/>
<path d="M1286 33 c-6 -14 -5 -15 5 -6 7 7 10 15 7 18 -3 3 -9 -2 -12 -12z"/>
<path d="M1870 40 c0 -5 5 -10 11 -10 5 0 7 5 4 10 -3 6 -8 10 -11 10 -2 0 -4
-4 -4 -10z"/>
<path d="M1910 32 c6 -13 14 -21 18 -18 3 4 -2 14 -12 24 -18 16 -18 16 -6 -6z"/>
<path d="M1976 34 c-5 -14 -4 -15 9 -4 17 14 19 20 6 20 -5 0 -12 -7 -15 -16z"/>
<path d="M2855 25 c-26 -21 -27 -23 -7 -18 12 3 22 9 22 14 0 5 7 9 15 9 8 0
15 5 15 10 0 16 -13 12 -45 -15z"/>
<path d="M2951 44 c-1 -6 -11 -16 -23 -23 -23 -11 -23 -11 2 -5 31 8 33 10 27
26 -3 7 -6 8 -6 2z"/>
<path d="M802 20 c0 -14 2 -19 5 -12 2 6 2 18 0 25 -3 6 -5 1 -5 -13z"/>
<path d="M1815 20 c-10 -11 -13 -20 -8 -20 13 0 38 29 31 35 -3 3 -13 -4 -23
-15z"/>
<path d="M2044 25 c-9 -21 -2 -26 13 -10 8 9 9 16 3 20 -6 3 -13 -1 -16 -10z"/>
<path d="M2121 24 c0 -11 3 -14 6 -6 3 7 2 16 -1 19 -3 4 -6 -2 -5 -13z"/>
<path d="M2970 30 c0 -5 7 -7 15 -4 8 4 15 8 15 10 0 2 -7 4 -15 4 -8 0 -15
-4 -15 -10z"/>
<path d="M871 14 c0 -11 3 -14 6 -6 3 7 2 16 -1 19 -3 4 -6 -2 -5 -13z"/>
<path d="M1440 21 c0 -10 26 -9 36 2 4 4 -2 7 -14 7 -12 0 -22 -4 -22 -9z"/>
<path d="M1490 19 c0 -5 5 -7 10 -4 6 3 10 8 10 11 0 2 -4 4 -10 4 -5 0 -10
-5 -10 -11z"/>
<path d="M1780 19 c0 -5 5 -7 10 -4 6 3 10 8 10 11 0 2 -4 4 -10 4 -5 0 -10
-5 -10 -11z"/>
<path d="M2080 16 c0 -9 5 -16 10 -16 6 0 10 4 10 9 0 6 -4 13 -10 16 -5 3
-10 -1 -10 -9z"/>
<path d="M2806 13 c-6 -14 -5 -15 5 -6 7 7 10 15 7 18 -3 3 -9 -2 -12 -12z"/>
</g>
</svg>
